<svg width="1344.000000pt" height="1341.000000pt" viewBox="0 0 1344.000000 1341.000000" xmlns="http://www.w3.org/2000/svg">
  <g transform="translate(0.000000,1341.000000) scale(0.100000,-0.100000)" fill="#ffffff" stroke="none">
    <path d="M0 6705 l0 -6705 6720 0 6720 0 0 6705 0 6705 -6720 0 -6720 0 0
-6705z m6794 5704 l26 -20 50 -105 c27 -57 50 -107 50 -110 0 -3 11 -30 25
-60 14 -30 37 -80 51 -111 14 -32 32 -71 39 -88 7 -16 32 -70 54 -118 23 -49
41 -90 41 -93 0 -2 18 -43 40 -90 22 -47 40 -88 40 -89 0 -2 18 -43 41 -92 47
-101 59 -129 89 -198 12 -27 35 -78 51 -111 16 -34 29 -65 29 -68 0 -3 23 -53
50 -110 28 -57 50 -107 50 -109 0 -3 16 -41 35 -84 20 -43 40 -87 45 -98 5
-11 18 -40 29 -65 10 -25 38 -85 60 -133 23 -49 41 -90 41 -92 0 -2 20 -46 45
-98 25 -52 45 -98 45 -102 0 -4 18 -46 41 -93 22 -48 44 -96 49 -107 5 -11 20
-46 34 -77 14 -32 38 -84 52 -115 14 -32 29 -67 34 -78 5 -11 27 -60 50 -110
22 -49 47 -103 54 -120 8 -16 28 -60 45 -97 17 -37 31 -69 31 -72 0 -4 16 -41
36 -84 20 -42 44 -95 54 -117 10 -22 30 -67 45 -100 15 -33 35 -78 45 -100 10
-22 30 -67 45 -100 14 -33 34 -77 45 -98 11 -22 20 -44 20 -50 0 -7 8 -22 18
-35 l18 -23 89 -9 c111 -12 242 -26 360 -40 50 -6 155 -17 235 -25 80 -8 187
-19 238 -25 219 -24 282 -31 362 -40 47 -6 150 -17 230 -25 80 -8 187 -19 238
-25 50 -5 131 -14 180 -20 48 -5 128 -14 177 -20 50 -6 155 -17 235 -25 162
-16 282 -29 415 -45 147 -17 261 -30 415 -45 80 -8 188 -19 240 -25 52 -6 131
-15 175 -20 44 -5 121 -13 170 -19 50 -6 133 -15 185 -21 52 -5 121 -14 153
-18 l57 -9 24 -22 c14 -13 30 -36 36 -52 l12 -29 -6 -35 -7 -35 -37 -38 c-20
-20 -62 -59 -92 -86 -76 -67 -185 -164 -230 -206 -21 -19 -62 -56 -92 -82 -29
-26 -69 -62 -89 -80 -20 -18 -65 -58 -100 -88 -34 -30 -79 -71 -99 -90 -21
-19 -59 -54 -86 -76 -27 -23 -65 -57 -84 -75 -19 -19 -66 -61 -105 -94 -38
-33 -79 -69 -90 -81 -11 -11 -56 -51 -100 -90 -43 -38 -91 -80 -105 -94 -14
-14 -52 -47 -84 -75 -32 -27 -75 -66 -96 -85 -21 -19 -66 -60 -100 -90 -35
-30 -72 -64 -84 -75 -12 -11 -42 -38 -67 -60 -49 -44 -189 -169 -284 -255 -34
-30 -81 -73 -106 -94 -24 -22 -69 -62 -99 -90 -30 -28 -78 -71 -105 -95 -58
-50 -170 -150 -225 -201 -21 -19 -62 -56 -92 -82 -29 -26 -69 -62 -89 -80 -20
-18 -65 -58 -100 -88 -35 -30 -80 -71 -100 -90 -20 -19 -58 -54 -85 -77 -27
-22 -59 -51 -72 -63 l-23 -22 6 -31 c3 -18 10 -51 15 -74 6 -24 14 -62 19 -85
17 -79 30 -133 40 -178 6 -25 15 -67 20 -95 5 -27 28 -135 51 -240 23 -104 66
-302 95 -440 86 -399 86 -396 105 -480 6 -27 16 -70 21 -95 6 -25 14 -63 19
-85 6 -22 15 -67 21 -100 6 -33 15 -76 19 -95 4 -19 13 -60 20 -90 7 -30 16
-73 21 -95 5 -22 16 -74 24 -115 15 -74 22 -108 45 -205 6 -27 15 -69 21 -92
5 -24 13 -62 19 -85 5 -24 16 -79 25 -123 9 -44 20 -99 25 -122 6 -24 15 -63
20 -88 6 -25 14 -64 20 -87 5 -24 16 -79 25 -123 9 -44 20 -99 25 -122 6 -24
14 -62 19 -85 6 -24 14 -61 19 -83 15 -63 31 -133 47 -215 15 -75 23 -111 45
-205 6 -27 14 -76 17 -107 l5 -57 -22 -30 c-25 -36 -68 -61 -104 -61 -14 0
-42 10 -63 22 -21 12 -58 32 -83 46 -24 13 -56 32 -70 41 -14 10 -56 35 -95
56 -191 105 -229 127 -257 146 -14 11 -28 19 -30 19 -2 0 -76 41 -163 91 -88
50 -178 101 -200 113 -59 33 -89 50 -95 56 -3 3 -14 10 -25 16 -11 6 -42 23
-70 39 -27 15 -84 46 -125 69 -104 58 -124 70 -130 76 -3 3 -23 14 -45 25 -22
11 -42 22 -45 25 -3 3 -16 11 -30 19 -14 8 -68 39 -120 69 -52 30 -113 64
-135 76 -22 13 -56 32 -75 43 -19 11 -51 29 -70 39 -19 11 -37 21 -40 24 -6 6
-27 18 -130 76 -41 22 -93 52 -115 64 -22 13 -60 34 -85 48 -25 13 -49 28 -55
32 -11 9 -354 204 -400 228 -16 8 -41 23 -55 32 -14 10 -41 26 -60 37 -19 11
-57 32 -85 48 -27 15 -84 46 -125 69 -103 58 -124 70 -130 76 -3 3 -14 10 -25
16 -36 20 -109 61 -210 119 -55 32 -125 71 -156 88 l-56 30 -49 -24 c-27 -13
-51 -26 -54 -29 -6 -6 -6 -6 -195 -113 -77 -44 -156 -88 -175 -99 -19 -11 -39
-24 -45 -28 -5 -4 -30 -19 -55 -32 -25 -14 -63 -35 -85 -48 -22 -13 -58 -33
-80 -45 -22 -12 -83 -47 -135 -77 -52 -30 -106 -61 -120 -69 -14 -8 -27 -16
-30 -19 -3 -3 -24 -14 -47 -25 -24 -11 -43 -23 -43 -27 0 -5 -4 -8 -9 -8 -5 0
-54 -25 -108 -56 -54 -31 -116 -66 -138 -78 -60 -33 -89 -50 -95 -56 -6 -6
-35 -23 -95 -56 -22 -12 -84 -47 -138 -78 -54 -31 -103 -56 -108 -56 -5 0 -9
-3 -9 -7 0 -5 -19 -17 -43 -28 -23 -11 -44 -22 -47 -25 -3 -3 -16 -11 -30 -19
-14 -8 -68 -39 -120 -69 -52 -30 -113 -65 -135 -77 -67 -36 -119 -67 -130 -75
-5 -4 -30 -19 -55 -32 -25 -14 -61 -34 -80 -45 -19 -11 -98 -56 -175 -100
-190 -108 -189 -107 -195 -113 -3 -3 -24 -14 -47 -25 -24 -11 -43 -23 -43 -27
0 -5 -4 -8 -9 -8 -5 0 -51 -24 -103 -53 -135 -77 -142 -81 -148 -87 -3 -3 -23
-14 -45 -25 -22 -11 -42 -22 -45 -25 -6 -6 -40 -26 -100 -58 -25 -13 -49 -27
-55 -32 -5 -4 -41 -24 -78 -44 -37 -20 -83 -46 -103 -56 -40 -23 -75 -25 -107
-7 -31 17 -66 58 -73 84 -6 21 2 78 25 178 20 89 32 144 46 215 8 41 19 93 24
115 5 22 27 123 49 225 23 102 46 208 52 235 6 28 15 68 20 90 5 22 21 96 35
165 14 69 31 145 36 170 6 25 15 64 20 88 5 23 13 61 18 85 5 23 15 65 21 92
6 28 15 68 20 90 6 22 15 67 21 100 6 33 15 76 19 95 10 42 24 106 40 180 7
30 16 73 21 95 5 22 16 74 24 115 15 74 22 108 45 205 21 95 29 130 44 210 9
44 20 100 26 125 6 25 15 64 21 88 5 23 14 62 19 87 5 25 14 64 20 87 5 24 16
79 25 123 9 44 20 99 25 123 6 23 14 61 19 85 6 23 15 62 20 87 6 25 18 79 26
120 8 41 19 93 24 115 5 22 14 65 21 95 7 30 16 73 21 95 5 22 12 58 16 79 l6
39 -15 11 c-8 6 -53 45 -99 87 -46 42 -136 123 -199 179 -63 57 -150 135 -194
174 -43 39 -91 82 -107 96 -40 36 -156 140 -195 175 -18 17 -61 55 -96 85 -34
30 -79 71 -99 90 -21 19 -59 53 -85 75 -26 22 -66 57 -88 78 -23 22 -70 64
-106 95 -36 31 -90 80 -120 108 -30 28 -75 69 -100 90 -25 21 -67 60 -95 85
-27 26 -68 62 -90 80 -22 19 -51 45 -65 59 -14 14 -59 54 -100 90 -41 35 -82
71 -90 80 -8 9 -49 45 -90 80 -41 36 -86 76 -100 90 -14 14 -43 40 -65 59 -22
18 -63 54 -90 80 -28 25 -70 64 -95 85 -25 21 -70 62 -100 90 -30 28 -85 77
-121 109 -36 31 -82 71 -101 89 -19 18 -58 53 -87 78 -30 25 -70 61 -90 80
-39 37 -141 128 -177 158 -34 27 -74 93 -74 119 0 29 14 58 44 90 l22 23 59
10 c33 6 103 15 155 20 52 6 133 15 180 20 47 5 126 14 175 19 50 6 131 15
180 21 50 6 155 17 235 25 142 14 235 24 423 46 153 17 245 27 402 43 83 8
191 20 240 25 50 6 131 15 180 20 50 6 131 15 180 21 50 6 155 17 235 25 80 8
188 19 240 25 52 6 133 15 180 21 145 17 259 29 415 45 143 14 188 19 403 43
92 11 272 30 283 31 3 0 18 28 34 63 15 34 43 94 62 134 18 39 33 73 33 76 0
3 20 48 45 101 25 53 45 98 45 100 0 2 18 44 40 93 44 94 45 97 86 188 25 58
61 139 89 200 7 17 32 70 54 118 23 49 41 90 41 93 0 2 18 43 40 90 22 47 40
88 40 89 0 2 18 43 41 92 22 48 50 108 60 133 11 25 24 54 29 65 5 11 25 55
45 98 19 43 35 80 35 82 0 2 23 51 50 110 28 59 50 108 50 110 0 2 16 39 35
82 20 43 40 87 44 98 12 26 76 165 107 231 13 28 24 54 24 57 0 4 18 44 40 89
22 46 40 86 40 91 0 4 21 51 46 105 25 53 49 106 54 117 5 11 22 49 38 85 16
36 37 83 47 105 37 86 68 152 96 209 16 32 29 63 29 67 0 5 20 51 45 103 25
53 45 99 45 103 0 6 37 88 83 182 7 13 25 37 40 53 l29 28 47 0 48 0 27 -21z" />
  </g>
  <g transform="translate(0.000000,1341.000000) scale(0.100000,-0.100000)" fill="#ffa800" stroke="none">
    <path d="M6633 12412 c-15 -16 -33 -40 -40 -53 -46 -94 -83 -176 -83 -182 0
-4 -20 -50 -45 -103 -25 -52 -45 -98 -45 -103 0 -4 -13 -35 -29 -67 -28 -57
-59 -123 -96 -209 -10 -22 -31 -69 -47 -105 -16 -36 -33 -74 -38 -85 -5 -11
-29 -64 -54 -117 -25 -54 -46 -101 -46 -105 0 -5 -18 -45 -40 -91 -22 -45 -40
-85 -40 -89 0 -3 -11 -29 -24 -57 -31 -66 -95 -205 -107 -231 -4 -11 -24 -55
-44 -98 -19 -43 -35 -80 -35 -82 0 -2 -22 -51 -50 -110 -27 -59 -50 -108 -50
-110 0 -2 -16 -39 -35 -82 -20 -43 -40 -87 -45 -98 -5 -11 -18 -40 -29 -65
-10 -25 -38 -85 -60 -133 -23 -49 -41 -90 -41 -92 0 -1 -18 -42 -40 -89 -22
-47 -40 -88 -40 -90 0 -3 -18 -44 -41 -93 -22 -48 -47 -101 -54 -118 -28 -61
-64 -142 -89 -200 -41 -91 -42 -94 -86 -188 -22 -49 -40 -91 -40 -93 0 -2 -20
-47 -45 -100 -25 -53 -45 -98 -45 -101 0 -3 -15 -37 -33 -76 -19 -40 -47 -100
-62 -134 -16 -35 -31 -63 -34 -63 -11 -1 -191 -20 -283 -31 -215 -24 -260 -29
-403 -43 -156 -16 -270 -28 -415 -45 -47 -6 -128 -15 -180 -21 -52 -6 -160
-17 -240 -25 -80 -8 -185 -19 -235 -25 -49 -6 -130 -15 -180 -21 -49 -5 -130
-14 -180 -20 -49 -5 -157 -17 -240 -25 -157 -16 -249 -26 -402 -43 -188 -22
-281 -32 -423 -46 -80 -8 -185 -19 -235 -25 -49 -6 -130 -15 -180 -21 -49 -5
-128 -14 -175 -19 -47 -5 -128 -14 -180 -20 -52 -5 -122 -14 -155 -20 l-59
-10 -22 -23 c-32 -35 -44 -62 -44 -100 l0 -34 26 -39 c15 -21 36 -47 48 -56
36 -30 138 -121 177 -158 20 -19 60 -55 90 -80 29 -25 68 -60 87 -78 19 -18
65 -58 101 -89 36 -32 91 -81 121 -109 30 -28 75 -69 100 -90 25 -21 67 -60
95 -85 27 -26 68 -62 90 -80 22 -19 51 -45 65 -59 14 -14 59 -54 100 -90 41
-35 82 -71 90 -80 8 -9 49 -45 90 -80 41 -36 86 -76 100 -90 14 -14 43 -40 65
-59 22 -18 63 -54 90 -80 28 -25 70 -64 95 -85 25 -21 70 -62 100 -90 30 -28
84 -77 120 -108 36 -31 83 -73 106 -95 22 -21 62 -56 88 -78 26 -22 64 -56 85
-75 20 -19 65 -60 99 -90 35 -30 78 -68 96 -85 39 -35 155 -139 195 -175 16
-14 64 -57 107 -96 44 -39 131 -117 194 -174 63 -56 153 -137 199 -179 46 -42
91 -81 100 -87 l15 -12 -12 -53 c-13 -56 -25 -108 -41 -181 -5 -24 -14 -63
-20 -88 -6 -25 -16 -72 -22 -105 -6 -33 -15 -78 -21 -100 -5 -22 -13 -59 -19
-82 -5 -24 -13 -62 -19 -85 -5 -24 -16 -79 -25 -123 -9 -44 -20 -99 -25 -123
-6 -23 -15 -62 -20 -87 -5 -25 -14 -64 -19 -87 -6 -24 -15 -63 -21 -88 -6 -25
-17 -81 -26 -125 -15 -80 -23 -115 -44 -210 -23 -97 -30 -131 -45 -205 -8 -41
-19 -93 -24 -115 -5 -22 -14 -65 -21 -95 -16 -74 -30 -138 -40 -180 -4 -19
-13 -62 -19 -95 -6 -33 -15 -78 -21 -100 -5 -22 -14 -62 -20 -90 -6 -27 -16
-69 -21 -92 -5 -24 -13 -62 -18 -85 -5 -24 -14 -63 -20 -88 -5 -25 -22 -101
-36 -170 -14 -69 -30 -143 -35 -165 -5 -22 -14 -62 -20 -90 -6 -27 -29 -133
-52 -235 -22 -102 -44 -203 -49 -225 -5 -22 -16 -74 -24 -115 -15 -75 -29
-141 -46 -215 -21 -89 -32 -173 -26 -196 7 -28 42 -68 74 -86 33 -19 87 -16
127 7 20 10 66 36 103 56 37 20 73 40 78 44 6 5 30 19 55 32 60 32 94 52 100
58 3 3 23 14 45 25 22 11 42 22 45 25 6 6 13 10 148 87 52 29 98 53 103 53 5
0 9 3 9 8 0 4 19 16 43 27 23 11 44 22 47 25 6 6 5 5 195 113 77 44 156 89
175 100 19 11 55 31 80 45 25 13 50 28 55 32 11 8 63 39 130 75 22 12 83 47
135 77 52 30 106 61 120 69 14 8 27 16 30 19 3 3 24 14 47 25 24 11 43 23 43
28 0 4 4 7 9 7 5 0 54 25 108 56 54 31 116 66 138 78 60 33 89 50 95 56 6 6
35 23 95 56 22 12 84 47 138 78 54 31 103 56 108 56 5 0 9 3 9 8 0 4 19 16 43
27 23 11 44 22 47 25 3 3 16 11 30 19 14 8 68 39 120 69 52 30 113 65 135 77
22 12 58 32 80 45 22 13 60 34 85 48 25 13 50 28 55 32 6 4 26 17 45 28 19 11
98 55 175 99 189 107 189 107 195 113 3 3 25 15 49 27 l44 21 51 -28 c28 -15
96 -54 151 -85 103 -59 175 -100 210 -119 11 -6 22 -13 25 -16 6 -6 27 -18
130 -76 41 -23 98 -54 125 -69 28 -16 66 -37 85 -48 19 -11 46 -27 60 -37 14
-9 39 -24 55 -32 46 -24 389 -219 400 -228 6 -4 30 -19 55 -32 25 -14 63 -35
85 -48 22 -12 74 -42 115 -64 103 -58 124 -70 130 -76 3 -3 21 -13 40 -24 19
-10 51 -28 70 -39 19 -11 53 -30 75 -43 22 -12 83 -46 135 -76 52 -30 106 -61
120 -69 14 -8 27 -16 30 -19 3 -3 23 -14 45 -25 22 -11 42 -22 45 -25 6 -6 26
-18 130 -76 41 -23 98 -54 125 -69 28 -16 59 -33 70 -39 11 -6 22 -13 25 -16
6 -6 36 -23 95 -56 22 -12 112 -63 200 -113 87 -50 161 -91 163 -91 2 0 16 -8
30 -19 28 -19 66 -41 257 -146 39 -21 81 -46 95 -56 14 -9 46 -28 70 -41 25
-14 62 -34 83 -46 l38 -22 35 0 c45 0 87 22 114 60 l22 31 -5 67 c-3 37 -10
85 -15 107 -15 59 -30 130 -47 215 -16 81 -31 152 -47 215 -5 22 -13 59 -19
83 -5 23 -13 61 -19 85 -5 23 -16 78 -25 122 -9 44 -20 99 -25 123 -6 23 -14
62 -20 87 -5 25 -14 64 -20 88 -5 23 -16 78 -25 122 -9 44 -20 99 -25 123 -6
23 -14 61 -19 85 -6 23 -15 65 -21 92 -23 97 -30 131 -45 205 -8 41 -19 93
-24 115 -5 22 -14 65 -21 95 -7 30 -16 71 -20 90 -4 19 -13 62 -19 95 -6 33
-15 78 -21 100 -16 72 -30 134 -39 178 -5 23 -14 62 -20 87 -11 50 -10 43 -86
395 -29 138 -72 336 -95 440 -24 105 -48 219 -55 255 -12 62 -27 133 -45 210
-12 53 -31 141 -40 183 l-8 38 22 21 c11 11 43 39 70 61 27 23 65 58 85 77 20
19 65 60 100 90 35 30 80 70 100 88 20 18 60 54 89 80 30 26 71 63 92 82 55
51 167 151 225 201 27 24 75 67 105 95 30 28 75 68 99 90 25 21 72 64 106 94
95 86 235 211 284 255 25 22 55 49 67 60 12 11 49 45 84 75 34 30 79 71 100
90 21 19 64 58 96 85 32 28 70 61 84 75 14 14 62 56 105 94 44 39 89 79 100
90 11 12 52 48 90 81 39 33 86 75 105 94 19 18 57 52 84 75 27 22 65 57 86 76
20 19 65 60 99 90 35 30 80 70 100 88 20 18 60 54 89 80 30 26 71 63 92 82 41
38 162 147 196 177 11 10 48 42 82 71 33 30 68 69 76 87 29 60 16 125 -33 169
l-21 19 -58 9 c-31 4 -100 13 -152 18 -52 6 -135 15 -185 21 -49 6 -126 14
-170 19 -44 5 -123 14 -175 20 -52 6 -160 17 -240 25 -154 15 -268 28 -415 45
-133 16 -253 29 -415 45 -80 8 -185 19 -235 25 -49 6 -128 15 -175 20 -47 5
-128 14 -180 20 -52 6 -160 17 -240 25 -80 8 -183 19 -230 25 -91 10 -206 23
-360 40 -52 6 -160 17 -240 25 -80 8 -185 19 -235 25 -118 14 -249 28 -360 40
l-89 9 -18 23 c-10 13 -18 28 -18 35 0 6 -9 28 -20 50 -11 21 -31 65 -45 98
-15 33 -35 78 -45 100 -10 22 -30 67 -45 100 -15 33 -35 78 -45 100 -10 22
-34 75 -54 117 -20 43 -36 80 -36 84 0 3 -14 35 -31 72 -17 37 -37 81 -45 97
-7 17 -32 71 -54 120 -23 50 -45 99 -50 110 -5 11 -21 47 -36 80 -42 95 -74
168 -84 190 -5 11 -27 59 -49 107 -23 47 -41 89 -41 93 0 4 -20 50 -45 102
-25 52 -45 96 -45 98 0 2 -18 43 -41 92 -22 48 -50 108 -60 133 -11 25 -24 54
-29 65 -5 11 -25 55 -45 98 -19 43 -35 81 -35 84 0 2 -22 52 -50 109 -27 57
-50 107 -50 110 0 3 -13 34 -29 68 -16 33 -36 77 -44 96 -9 19 -24 55 -35 80
-11 25 -39 85 -61 133 -23 49 -41 90 -41 92 0 1 -18 42 -40 89 -22 47 -40 88
-40 90 0 3 -18 44 -41 93 -22 48 -47 102 -54 118 -7 17 -25 56 -39 88 -14 31
-37 81 -51 111 -14 30 -25 57 -25 60 0 3 -23 53 -50 110 l-50 105 -26 20 -27
21 -58 0 -57 0 -29 -28z m117 -524 c11 -23 20 -50 20 -60 0 -10 4 -18 9 -18 5
0 14 -15 21 -32 7 -18 28 -65 47 -105 18 -40 33 -79 33 -88 0 -8 3 -15 8 -15
4 0 18 -28 31 -62 14 -35 31 -70 38 -79 7 -8 13 -20 13 -26 0 -5 11 -32 25
-59 14 -27 25 -59 25 -71 0 -13 4 -23 8 -23 10 0 72 -132 72 -153 0 -9 4 -17
10 -17 5 0 12 -16 16 -35 3 -19 10 -35 14 -35 5 0 11 -13 15 -29 3 -16 13 -35
21 -42 8 -6 14 -18 14 -25 0 -8 4 -22 9 -32 9 -16 42 -88 98 -212 13 -30 31
-68 39 -83 8 -16 14 -37 14 -48 0 -10 4 -19 9 -19 5 0 12 -13 16 -29 3 -16 13
-35 21 -42 8 -6 14 -18 14 -25 0 -7 23 -62 51 -121 28 -60 60 -132 71 -160 10
-29 24 -55 29 -58 5 -4 9 -17 9 -31 0 -13 4 -24 9 -24 5 0 12 -10 16 -22 8
-28 12 -37 70 -163 26 -55 50 -109 55 -120 4 -11 22 -51 40 -90 18 -38 38 -83
46 -100 7 -16 28 -64 47 -105 20 -41 45 -97 57 -125 34 -79 36 -86 75 -170 20
-44 40 -89 45 -100 4 -11 26 -59 49 -107 23 -47 41 -89 41 -92 0 -3 20 -49 45
-102 25 -53 45 -97 45 -99 0 -2 18 -43 41 -92 22 -48 49 -107 60 -130 11 -24
31 -50 45 -59 l25 -17 77 -8 c95 -10 255 -28 342 -39 36 -4 -900 -7 -2080 -7
l-2145 0 70 8 c39 4 113 12 165 18 52 6 133 15 179 20 l84 10 21 20 c11 11 28
35 37 53 24 49 80 168 94 203 7 17 28 62 45 100 18 39 36 79 41 90 4 11 24 55
43 98 32 68 70 152 96 212 5 11 25 54 44 96 20 41 36 78 36 82 0 4 23 55 50
113 28 58 50 107 50 109 0 2 20 48 45 101 25 53 45 98 45 100 0 14 55 124 62
124 4 0 8 8 8 18 0 10 11 42 25 70 14 29 25 58 25 66 0 7 6 19 14 25 8 7 18
26 21 42 4 16 11 29 16 29 5 0 9 8 9 18 0 10 7 27 15 38 8 10 15 25 15 33 0
21 63 151 72 151 4 0 8 11 8 24 0 13 7 29 15 36 8 7 15 20 15 30 0 10 11 40
24 67 36 70 66 140 66 152 0 6 5 11 10 11 6 0 10 7 10 16 0 19 61 148 72 152
4 2 8 14 8 27 0 13 7 30 15 39 8 8 15 21 15 29 0 8 11 37 24 64 14 26 31 64
39 83 9 19 27 61 41 93 14 32 26 60 26 64 0 4 6 14 14 22 7 9 21 40 31 69 9
29 23 59 31 66 8 8 14 21 14 29 0 8 12 39 26 69 14 29 32 67 39 83 7 17 31 69
54 117 23 47 41 93 41 101 0 8 7 20 15 27 8 7 15 21 15 31 0 9 7 24 15 33 8 8
15 23 15 34 0 20 8 32 21 32 5 0 18 -19 29 -42z m3180 -6091 c0 -2 -57 -55
-127 -118 -69 -63 -131 -119 -137 -124 -6 -6 -49 -44 -96 -85 -168 -149 -167
-148 -197 -187 l-25 -32 5 -63 c3 -35 10 -84 16 -110 26 -112 31 -137 46 -213
9 -44 20 -99 25 -122 6 -24 14 -62 19 -85 6 -24 15 -65 21 -93 23 -97 30 -131
45 -205 8 -41 19 -93 24 -115 5 -22 14 -65 21 -95 7 -30 16 -73 21 -95 5 -22
16 -74 24 -115 8 -41 19 -93 24 -115 13 -57 27 -122 41 -185 7 -30 16 -73 21
-95 5 -22 16 -74 24 -115 8 -41 19 -93 24 -115 5 -22 14 -65 21 -95 7 -30 16
-71 20 -90 4 -19 15 -69 23 -110 9 -41 34 -158 57 -260 24 -102 48 -214 55
-250 12 -62 27 -132 45 -210 4 -19 13 -60 20 -90 7 -30 16 -73 21 -95 5 -22
16 -74 24 -115 8 -41 19 -93 24 -115 5 -22 14 -65 21 -95 7 -30 16 -73 21 -95
5 -22 16 -74 24 -115 29 -148 35 -171 40 -181 4 -5 4 -9 2 -9 -3 0 -34 16 -69
36 -34 20 -76 44 -93 54 -16 9 -52 29 -79 44 -27 15 -65 38 -85 52 -19 13 -40
24 -44 24 -5 0 -21 8 -35 18 -15 11 -58 36 -95 56 -107 58 -141 78 -152 86 -5
4 -30 19 -55 33 -25 13 -124 69 -220 124 -235 134 -224 127 -230 133 -3 3 -21
13 -40 24 -19 10 -48 26 -65 36 -16 9 -57 32 -90 50 -33 18 -77 44 -97 57 -21
12 -42 23 -48 23 -5 0 -10 4 -10 8 0 4 -12 13 -27 19 -28 12 -84 44 -93 53 -3
3 -27 17 -55 31 -27 15 -95 52 -150 84 -101 58 -173 99 -210 119 -11 6 -22 13
-25 16 -6 6 -41 26 -100 58 -25 13 -49 27 -55 32 -5 4 -41 24 -78 44 -106 58
-140 77 -167 96 -14 9 -38 24 -55 32 -46 24 -389 219 -400 228 -5 4 -30 19
-55 32 -25 14 -61 34 -80 45 -19 11 -62 35 -95 53 -33 18 -77 44 -97 57 -21
12 -42 23 -47 23 -5 0 -11 3 -13 8 -1 4 -25 18 -52 31 l-48 24 -53 -6 -53 -5
-41 -26 c-22 -14 -43 -26 -47 -26 -3 0 -18 -8 -32 -19 -15 -10 -43 -27 -62
-38 -19 -11 -62 -35 -94 -53 -33 -18 -98 -55 -145 -83 -48 -27 -104 -59 -126
-71 -62 -34 -90 -51 -95 -56 -3 -3 -27 -17 -55 -31 -27 -15 -93 -51 -145 -81
-52 -30 -106 -61 -120 -69 -14 -8 -27 -16 -30 -19 -3 -3 -23 -14 -45 -25 -22
-11 -42 -22 -45 -25 -3 -3 -16 -11 -30 -19 -157 -90 -214 -121 -220 -121 -5 0
-10 -3 -12 -7 -1 -5 -21 -17 -43 -28 -22 -11 -42 -22 -45 -25 -6 -6 -34 -22
-95 -56 -22 -12 -85 -48 -140 -79 -103 -59 -165 -94 -225 -128 -19 -10 -39
-23 -45 -27 -5 -4 -26 -17 -45 -27 -121 -67 -154 -86 -235 -133 -49 -29 -108
-62 -130 -74 -60 -33 -89 -50 -95 -56 -3 -3 -27 -17 -55 -31 -27 -15 -93 -51
-145 -81 -52 -30 -106 -61 -120 -69 -14 -8 -27 -16 -30 -19 -3 -3 -23 -14 -45
-25 -22 -11 -42 -22 -45 -25 -3 -3 -16 -11 -30 -19 -157 -90 -214 -121 -220
-121 -5 0 -10 -3 -12 -7 -1 -5 -21 -17 -43 -28 -22 -11 -42 -22 -45 -25 -6 -6
-39 -25 -99 -57 l-44 -24 8 33 c4 18 11 51 16 73 5 22 16 74 24 115 8 41 19
93 24 115 13 57 27 122 41 185 7 30 16 73 21 95 5 22 16 74 24 115 8 41 19 93
24 115 5 22 14 65 21 95 7 30 16 73 21 95 5 22 16 74 24 115 8 41 19 93 24
115 13 57 27 122 41 185 7 30 16 73 21 95 5 22 16 72 23 110 8 39 24 113 36
165 29 124 37 160 55 250 8 41 19 93 24 115 13 57 27 122 41 185 7 30 16 73
21 95 5 22 16 74 24 115 8 41 19 93 24 115 5 22 14 65 21 95 7 30 16 73 21 95
5 22 16 74 24 115 8 41 19 93 24 115 5 22 27 123 49 225 23 102 46 205 51 230
5 25 15 70 22 100 6 30 15 68 20 84 5 16 9 42 9 57 0 59 -26 94 -159 209 -35
30 -78 69 -96 85 -17 17 -58 53 -90 80 -32 28 -72 64 -89 80 -17 17 -57 52
-89 79 -31 27 -57 52 -57 57 l0 9 3205 0 c1763 0 3205 -1 3205 -3z" />
  </g>
  <g transform="translate(0.000000,1341.000000) scale(0.100000,-0.100000)" fill="#ffa300" stroke="none">
    <path d="M6750 11875 c0 -8 7 -15 16 -15 l16 0 -12 15 c-7 8 -14 15 -16 15 -2
0 -4 -7 -4 -15z" />
    <path d="M6670 11870 c0 -5 5 -10 10 -10 6 0 10 5 10 10 0 6 -4 10 -10 10 -5
0 -10 -4 -10 -10z" />
    <path d="M6780 11810 c0 -5 5 -10 10 -10 6 0 10 5 10 10 0 6 -4 10 -10 10 -5
0 -10 -4 -10 -10z" />
    <path d="M6810 11746 c0 -9 5 -16 10 -16 6 0 10 4 10 9 0 6 -4 13 -10 16 l-10
6 0 -15z" />
    <path d="M6586 11685 l-5 -15 14 0 c8 0 15 7 15 15 0 8 -4 15 -9 15 -5 0 -11
-7 -15 -15z" />
    <path d="M6560 11625 c0 -8 5 -15 10 -15 6 0 10 7 10 15 0 8 -4 15 -10 15 -5
0 -10 -7 -10 -15z" />
    <path d="M6860 11625 c0 -8 7 -15 15 -15 l14 0 -5 15 c-4 8 -10 15 -15 15 -5
0 -9 -7 -9 -15z" />
    <path d="M5660 9615 l-12 -15 16 0 c9 0 16 7 16 15 0 8 -2 15 -4 15 -2 0 -9
-7 -16 -15z" />
    <path d="M5636 9561 c-4 -7 -5 -15 -2 -18 9 -9 19 4 14 18 l-4 13 -8 -13z" />
    <path d="M7790 9555 c0 -8 7 -15 16 -15 l16 0 -12 15 c-7 8 -14 15 -16 15 -2
0 -4 -7 -4 -15z" />
    <path d="M5606 9495 l-5 -15 14 0 c8 0 15 7 15 15 0 8 -4 15 -9 15 -5 0 -11
-7 -15 -15z" />
    <path d="M7850 9425 c0 -8 5 -15 10 -15 6 0 10 7 10 15 0 8 -4 15 -10 15 -5 0
-10 -7 -10 -15z" />
    <path d="M5500 9255 l-12 -15 16 0 c9 0 16 7 16 15 0 8 -2 15 -4 15 -2 0 -9
-7 -16 -15z" />
    <path d="M7960 9186 c0 -9 5 -16 10 -16 6 0 10 4 10 9 0 6 -4 13 -10 16 l-10
6 0 -15z" />
    <path d="M5440 9125 l-12 -15 16 0 c9 0 16 7 16 15 0 8 -2 15 -4 15 -2 0 -9
-7 -16 -15z" />
    <path d="M8010 9065 c0 -8 5 -15 10 -15 6 0 10 7 10 15 0 8 -4 15 -10 15 -5 0
-10 -7 -10 -15z" />
    <path d="M5386 9005 l-5 -15 14 0 c8 0 15 7 15 15 0 8 -4 15 -9 15 -5 0 -11
-7 -15 -15z" />
    <path d="M8040 8995 c0 -8 7 -15 16 -15 l16 0 -12 15 c-7 8 -14 15 -16 15 -2
0 -4 -7 -4 -15z" />
    <path d="M8070 8935 c0 -8 5 -15 10 -15 6 0 10 7 10 15 0 8 -4 15 -10 15 -5 0
-10 -7 -10 -15z" />
    <path d="M5280 8765 l-12 -15 16 0 c9 0 16 7 16 15 0 8 -2 15 -4 15 -2 0 -9
-7 -16 -15z" />
    <path d="M8180 8696 c0 -9 5 -16 10 -16 6 0 10 4 10 9 0 6 -4 13 -10 16 l-10
6 0 -15z" />
    <path d="M5226 8641 c-4 -7 -5 -15 -2 -18 9 -9 19 4 14 18 l-4 13 -8 -13z" />
    <path d="M8230 8575 c0 -8 5 -15 10 -15 6 0 10 7 10 15 0 8 -4 15 -10 15 -5 0
-10 -7 -10 -15z" />
    <path d="M5160 8505 c0 -8 5 -15 10 -15 6 0 10 7 10 15 0 8 -4 15 -10 15 -5 0
-10 -7 -10 -15z" />
    <path d="M8260 8505 c0 -8 7 -15 15 -15 l14 0 -5 15 c-4 8 -10 15 -15 15 -5 0
-9 -7 -9 -15z" />
    <path d="M8290 8445 c0 -8 5 -15 10 -15 6 0 10 7 10 15 0 8 -4 15 -10 15 -5 0
-10 -7 -10 -15z" />
    <path d="M5070 8355 l-12 -15 16 0 c9 0 16 7 16 15 0 8 -2 15 -4 15 -2 0 -9
-7 -16 -15z" />
    <path d="M8350 8355 c0 -7 10 -15 23 -19 30 -8 37 -7 37 2 0 4 -13 13 -30 19
l-30 11 0 -13z" />
    <path d="M4780 8310 c0 -5 7 -10 15 -10 8 0 15 5 15 10 0 6 -7 10 -15 10 -8 0
-15 -4 -15 -10z" />
    <path d="M9303 8243 c4 -3 10 -3 14 0 3 4 0 7 -7 7 -7 0 -10 -3 -7 -7z" />
    <path d="M3773 8203 c4 -3 10 -3 14 0 3 4 0 7 -7 7 -7 0 -10 -3 -7 -7z" />
    <path d="M9653 8203 c4 -3 10 -3 14 0 3 4 0 7 -7 7 -7 0 -10 -3 -7 -7z" />
    <path d="M3123 8133 c4 -3 10 -3 14 0 3 4 0 7 -7 7 -7 0 -10 -3 -7 -7z" />
    <path d="M10663 8093 c4 -3 10 -3 14 0 3 4 0 7 -7 7 -7 0 -10 -3 -7 -7z" />
    <path d="M2113 8023 c4 -3 10 -3 14 0 3 4 0 7 -7 7 -7 0 -10 -3 -7 -7z" />
    <path d="M11313 8023 c4 -3 10 -3 14 0 3 4 0 7 -7 7 -7 0 -10 -3 -7 -7z" />
    <path d="M1763 7983 c4 -3 10 -3 14 0 3 4 0 7 -7 7 -7 0 -10 -3 -7 -7z" />
    <path d="M1463 7953 c4 -3 10 -3 14 0 3 4 0 7 -7 7 -7 0 -10 -3 -7 -7z" />
    <path d="M11963 7953 c4 -3 10 -3 14 0 3 4 0 7 -7 7 -7 0 -10 -3 -7 -7z" />
    <path d="M12279 7883 l-14 -18 18 14 c9 7 17 15 17 17 0 8 -8 3 -21 -13z" />
    <path d="M12205 7820 c-3 -5 -1 -10 4 -10 6 0 11 5 11 10 0 6 -2 10 -4 10 -3
0 -8 -4 -11 -10z" />
    <path d="M1285 7770 c3 -5 8 -10 11 -10 3 0 2 5 -1 10 -3 6 -8 10 -11 10 -3 0
-2 -4 1 -10z" />
    <path d="M12140 7765 l-13 -15 17 6 c9 3 16 10 16 15 0 13 -6 11 -20 -6z" />
    <path d="M1345 7710 c3 -5 8 -10 11 -10 2 0 4 5 4 10 0 6 -5 10 -11 10 -5 0
-7 -4 -4 -10z" />
    <path d="M12084 7708 l-7 -11 11 7 c7 4 12 9 12 12 0 8 -9 4 -16 -8z" />
    <path d="M1405 7660 c3 -5 8 -10 11 -10 3 0 2 5 -1 10 -3 6 -8 10 -11 10 -3 0
-2 -4 1 -10z" />
    <path d="M12020 7655 l-13 -15 17 6 c9 3 16 10 16 15 0 13 -6 11 -20 -6z" />
    <path d="M1470 7601 c0 -5 7 -12 16 -15 l17 -6 -13 15 c-14 17 -20 19 -20 6z" />
    <path d="M11960 7599 c0 -5 5 -7 10 -4 6 3 10 8 10 11 0 2 -4 4 -10 4 -5 0
-10 -5 -10 -11z" />
    <path d="M11904 7548 l-7 -11 11 7 c7 4 12 9 12 12 0 8 -9 4 -16 -8z" />
    <path d="M11829 7483 l-14 -18 18 14 c9 7 17 15 17 17 0 8 -8 3 -21 -13z" />
    <path d="M1650 7436 c0 -2 7 -7 16 -10 l15 -6 -6 10 c-6 10 -25 14 -25 6z" />
    <path d="M1725 7370 c3 -5 8 -10 11 -10 2 0 4 5 4 10 0 6 -5 10 -11 10 -5 0
-7 -4 -4 -10z" />
    <path d="M11634 7308 l-7 -11 11 7 c12 7 16 16 8 16 -3 0 -8 -5 -12 -12z" />
    <path d="M1850 7261 c0 -5 7 -12 16 -15 l17 -6 -13 15 c-14 17 -20 19 -20 6z" />
    <path d="M11580 7259 c0 -5 5 -7 10 -4 6 3 10 8 10 11 0 2 -4 4 -10 4 -5 0
-10 -5 -10 -11z" />
    <path d="M1910 7210 c0 -7 3 -10 7 -7 3 4 3 10 0 14 -4 3 -7 0 -7 -7z" />
    <path d="M11524 7208 l-7 -11 11 7 c7 4 12 9 12 12 0 8 -9 4 -16 -8z" />
    <path d="M1975 7150 c3 -5 8 -10 11 -10 3 0 2 5 -1 10 -3 6 -8 10 -11 10 -3 0
-2 -4 1 -10z" />
    <path d="M11450 7145 l-13 -15 17 6 c9 3 16 10 16 15 0 13 -6 11 -20 -6z" />
    <path d="M2030 7096 c0 -2 7 -7 16 -10 l15 -6 -6 10 c-6 10 -25 14 -25 6z" />
    <path d="M2095 7040 c3 -5 8 -10 11 -10 2 0 4 5 4 10 0 6 -5 10 -11 10 -5 0
-7 -4 -4 -10z" />
    <path d="M11329 7033 l-14 -18 18 14 c9 7 17 15 17 17 0 8 -8 3 -21 -13z" />
    <path d="M2150 6996 c0 -2 8 -10 18 -17 l17 -14 -14 18 c-13 16 -21 21 -21 13z" />
    <path d="M11265 6980 l-6 -10 15 6 c18 7 21 14 7 14 -6 0 -13 -4 -16 -10z" />
    <path d="M2230 6920 c0 -5 5 -10 11 -10 5 0 7 5 4 10 -3 6 -8 10 -11 10 -2 0
-4 -4 -4 -10z" />
    <path d="M11200 6919 c0 -5 5 -7 10 -4 6 3 10 8 10 11 0 2 -4 4 -10 4 -5 0
-10 -5 -10 -11z" />
    <path d="M2293 6863 c4 -3 10 -3 14 0 3 4 0 7 -7 7 -7 0 -10 -3 -7 -7z" />
    <path d="M3521 5768 c56 -53 149 -137 225 -203 31 -27 72 -63 89 -80 18 -16
61 -55 96 -85 102 -89 134 -123 148 -158 l14 -33 -13 -57 c-7 -31 -16 -70 -20
-87 -4 -16 -13 -55 -19 -85 -6 -30 -30 -138 -52 -240 -23 -102 -45 -203 -50
-225 -5 -22 -16 -74 -24 -115 -8 -41 -19 -93 -24 -115 -5 -22 -14 -65 -21 -95
-7 -30 -16 -73 -21 -95 -5 -22 -16 -74 -24 -115 -8 -41 -19 -93 -24 -115 -5
-22 -14 -65 -21 -95 -14 -63 -28 -128 -41 -185 -8 -36 -39 -196 -39 -202 0 -2
1359 -3 3020 -3 l3020 0 0 23 c-1 12 -5 40 -9 62 -14 62 -32 147 -41 185 -4
19 -13 60 -20 90 -7 30 -16 73 -21 95 -5 22 -16 74 -24 115 -8 41 -19 93 -24
115 -5 22 -14 65 -21 95 -7 30 -16 73 -21 95 -5 22 -16 74 -24 115 -15 74 -22
108 -45 205 -6 28 -15 69 -21 93 -5 23 -13 61 -19 85 -5 23 -16 78 -25 122 -9
44 -20 99 -25 123 -6 23 -15 63 -21 90 -6 26 -13 71 -16 100 l-5 53 25 32 c29
37 46 54 157 151 71 62 208 185 280 251 36 33 82 74 103 92 20 18 37 35 37 38
0 3 -1459 5 -3242 5 l-3242 0 45 -42z" />
  </g>
  <g transform="translate(0.000000,1341.000000) scale(0.100000,-0.100000)" fill="#fe9f00" stroke="none">
    <path d="M6850 11666 c0 -9 5 -16 10 -16 6 0 10 4 10 9 0 6 -4 13 -10 16 l-10
6 0 -15z" />
    <path d="M6970 11385 c0 -8 7 -15 16 -15 l16 0 -12 15 c-7 8 -14 15 -16 15 -2
0 -4 -7 -4 -15z" />
    <path d="M6450 11380 c0 -5 5 -10 10 -10 6 0 10 5 10 10 0 6 -4 10 -10 10 -5
0 -10 -4 -10 -10z" />
    <path d="M7000 11325 c0 -8 5 -15 10 -15 6 0 10 7 10 15 0 8 -4 15 -10 15 -5
0 -10 -7 -10 -15z" />
    <path d="M7030 11253 c0 -14 19 -38 25 -32 8 8 -5 39 -16 39 -5 0 -9 -3 -9 -7z" />
    <path d="M6386 11241 c-4 -7 -5 -15 -2 -18 9 -9 19 4 14 18 l-4 13 -8 -13z" />
    <path d="M6366 11195 l-5 -15 14 0 c8 0 15 7 15 15 0 8 -4 15 -9 15 -5 0 -11
-7 -15 -15z" />
    <path d="M6310 11065 c0 -8 5 -15 10 -15 6 0 10 7 10 15 0 8 -4 15 -10 15 -5
0 -10 -7 -10 -15z" />
    <path d="M6260 10955 l-12 -15 16 0 c9 0 16 7 16 15 0 8 -2 15 -4 15 -2 0 -9
-7 -16 -15z" />
    <path d="M7190 10895 c0 -8 7 -15 16 -15 l16 0 -12 15 c-7 8 -14 15 -16 15 -2
0 -4 -7 -4 -15z" />
    <path d="M6230 10890 c0 -5 5 -10 10 -10 6 0 10 5 10 10 0 6 -4 10 -10 10 -5
0 -10 -4 -10 -10z" />
    <path d="M7220 10825 c0 -8 7 -15 16 -15 l16 0 -12 15 c-7 8 -14 15 -16 15 -2
0 -4 -7 -4 -15z" />
    <path d="M6200 10820 c0 -5 5 -10 10 -10 6 0 10 5 10 10 0 6 -4 10 -10 10 -5
0 -10 -4 -10 -10z" />
    <path d="M7250 10768 c0 -17 18 -44 24 -37 8 7 -5 49 -15 49 -5 0 -9 -6 -9
-12z" />
    <path d="M6166 10751 c-4 -7 -5 -15 -2 -18 9 -9 19 4 14 18 l-4 13 -8 -13z" />
    <path d="M6146 10705 l-5 -15 14 0 c8 0 15 7 15 15 0 8 -4 15 -9 15 -5 0 -11
-7 -15 -15z" />
    <path d="M6040 10465 l-12 -15 16 0 c9 0 16 7 16 15 0 8 -2 15 -4 15 -2 0 -9
-7 -16 -15z" />
    <path d="M7410 10406 c0 -9 5 -16 10 -16 6 0 10 4 10 9 0 6 -4 13 -10 16 l-10
6 0 -15z" />
    <path d="M7440 10335 c0 -8 7 -15 16 -15 l16 0 -12 15 c-7 8 -14 15 -16 15 -2
0 -4 -7 -4 -15z" />
    <path d="M5976 10324 c-9 -22 3 -32 14 -14 12 19 12 30 1 30 -5 0 -12 -7 -15
-16z" />
    <path d="M7470 10275 c0 -8 5 -15 10 -15 6 0 10 7 10 15 0 8 -4 15 -10 15 -5
0 -10 -7 -10 -15z" />
    <path d="M5896 10145 l-5 -15 14 0 c8 0 15 7 15 15 0 8 -4 15 -9 15 -5 0 -11
-7 -15 -15z" />
    <path d="M5826 9981 c-4 -7 -5 -15 -2 -18 9 -9 19 4 14 18 l-4 13 -8 -13z" />
    <path d="M5790 9905 l-12 -15 16 0 c9 0 16 7 16 15 0 8 -2 15 -4 15 -2 0 -9
-7 -16 -15z" />
    <path d="M7660 9845 c0 -8 7 -15 16 -15 l16 0 -12 15 c-7 8 -14 15 -16 15 -2
0 -4 -7 -4 -15z" />
    <path d="M5756 9834 c-9 -22 3 -32 14 -14 12 19 12 30 1 30 -5 0 -12 -7 -15
-16z" />
    <path d="M7690 9785 c0 -8 5 -15 10 -15 6 0 10 7 10 15 0 8 -4 15 -10 15 -5 0
-10 -7 -10 -15z" />
    <path d="M5676 9655 l-5 -15 14 0 c8 0 15 7 15 15 0 8 -4 15 -9 15 -5 0 -11
-7 -15 -15z" />
    <path d="M7800 9540 c0 -5 5 -10 10 -10 6 0 10 5 10 10 0 6 -4 10 -10 10 -5 0
-10 -4 -10 -10z" />
    <path d="M7820 9485 c0 -8 7 -15 16 -15 l16 0 -12 15 c-7 8 -14 15 -16 15 -2
0 -4 -7 -4 -15z" />
    <path d="M5600 9480 c0 -5 5 -10 10 -10 6 0 10 5 10 10 0 6 -4 10 -10 10 -5 0
-10 -4 -10 -10z" />
    <path d="M5570 9415 l-12 -15 16 0 c9 0 16 7 16 15 0 8 -2 15 -4 15 -2 0 -9
-7 -16 -15z" />
    <path d="M7870 9396 c0 -9 5 -16 10 -16 6 0 10 4 10 9 0 6 -4 13 -10 16 l-10
6 0 -15z" />
    <path d="M5540 9355 c0 -8 5 -15 10 -15 6 0 10 7 10 15 0 8 -4 15 -10 15 -5 0
-10 -7 -10 -15z" />
    <path d="M7880 9355 c0 -8 7 -15 15 -15 l14 0 -5 15 c-4 8 -10 15 -15 15 -5 0
-9 -7 -9 -15z" />
    <path d="M7910 9295 c0 -8 5 -15 10 -15 6 0 10 7 10 15 0 8 -4 15 -10 15 -5 0
-10 -7 -10 -15z" />
    <path d="M7940 9225 c0 -8 5 -15 10 -15 6 0 10 7 10 15 0 8 -4 15 -10 15 -5 0
-10 -7 -10 -15z" />
    <path d="M5410 9055 l-12 -15 16 0 c9 0 16 7 16 15 0 8 -2 15 -4 15 -2 0 -9
-7 -16 -15z" />
    <path d="M5380 8990 c0 -5 5 -10 10 -10 6 0 10 5 10 10 0 6 -4 10 -10 10 -5 0
-10 -4 -10 -10z" />
    <path d="M8050 8980 c0 -5 5 -10 10 -10 6 0 10 5 10 10 0 6 -4 10 -10 10 -5 0
-10 -4 -10 -10z" />
    <path d="M5350 8925 l-12 -15 16 0 c9 0 16 7 16 15 0 8 -2 15 -4 15 -2 0 -9
-7 -16 -15z" />
    <path d="M8090 8906 c0 -9 5 -16 10 -16 6 0 10 4 10 9 0 6 -4 13 -10 16 l-10
6 0 -15z" />
    <path d="M5320 8865 c0 -8 5 -15 10 -15 6 0 10 7 10 15 0 8 -4 15 -10 15 -5 0
-10 -7 -10 -15z" />
    <path d="M8100 8865 c0 -8 7 -15 15 -15 l14 0 -5 15 c-4 8 -10 15 -15 15 -5 0
-9 -7 -9 -15z" />
    <path d="M8160 8735 c0 -8 5 -15 10 -15 6 0 10 7 10 15 0 8 -4 15 -10 15 -5 0
-10 -7 -10 -15z" />
    <path d="M5190 8565 l-12 -15 16 0 c9 0 16 7 16 15 0 8 -2 15 -4 15 -2 0 -9
-7 -16 -15z" />
    <path d="M8270 8493 c0 -14 19 -38 25 -32 8 8 -5 39 -16 39 -5 0 -9 -3 -9 -7z" />
    <path d="M5146 8481 c-4 -7 -5 -15 -2 -18 9 -9 19 4 14 18 l-4 13 -8 -13z" />
    <path d="M5130 8435 l-12 -15 16 0 c9 0 16 7 16 15 0 8 -2 15 -4 15 -2 0 -9
-7 -16 -15z" />
    <path d="M5106 8395 l-5 -15 14 0 c8 0 15 7 15 15 0 8 -4 15 -9 15 -5 0 -11
-7 -15 -15z" />
    <path d="M8520 8320 c0 -5 7 -10 15 -10 8 0 15 5 15 10 0 6 -7 10 -15 10 -8 0
-15 -4 -15 -10z" />
    <path d="M4735 8310 l-6 -10 15 0 c9 0 16 5 16 10 0 6 -4 10 -9 10 -6 0 -13
-4 -16 -10z" />
    <path d="M8680 8310 c0 -5 7 -10 16 -10 l15 0 -6 10 c-3 6 -10 10 -16 10 -5 0
-9 -4 -9 -10z" />
    <path d="M4600 8290 c0 -5 7 -10 15 -10 8 0 15 5 15 10 0 6 -7 10 -15 10 -8 0
-15 -4 -15 -10z" />
    <path d="M4540 8280 c0 -5 7 -10 15 -10 8 0 15 5 15 10 0 6 -7 10 -15 10 -8 0
-15 -4 -15 -10z" />
    <path d="M4393 8273 c4 -3 10 -3 14 0 3 4 0 7 -7 7 -7 0 -10 -3 -7 -7z" />
    <path d="M4243 8253 c4 -3 10 -3 14 0 3 4 0 7 -7 7 -7 0 -10 -3 -7 -7z" />
    <path d="M9183 8253 c4 -3 10 -3 14 0 3 4 0 7 -7 7 -7 0 -10 -3 -7 -7z" />
    <path d="M4093 8243 c4 -3 10 -3 14 0 3 4 0 7 -7 7 -7 0 -10 -3 -7 -7z" />
    <path d="M9333 8243 c4 -3 10 -3 14 0 3 4 0 7 -7 7 -7 0 -10 -3 -7 -7z" />
    <path d="M4033 8233 c4 -3 10 -3 14 0 3 4 0 7 -7 7 -7 0 -10 -3 -7 -7z" />
    <path d="M9393 8233 c4 -3 10 -3 14 0 3 4 0 7 -7 7 -7 0 -10 -3 -7 -7z" />
    <path d="M3893 8213 c4 -3 10 -3 14 0 3 4 0 7 -7 7 -7 0 -10 -3 -7 -7z" />
    <path d="M9693 8203 c4 -3 10 -3 14 0 3 4 0 7 -7 7 -7 0 -10 -3 -7 -7z" />
    <path d="M3593 8183 c4 -3 10 -3 14 0 3 4 0 7 -7 7 -7 0 -10 -3 -7 -7z" />
    <path d="M9833 8183 c4 -3 10 -3 14 0 3 4 0 7 -7 7 -7 0 -10 -3 -7 -7z" />
    <path d="M3533 8173 c4 -3 10 -3 14 0 3 4 0 7 -7 7 -7 0 -10 -3 -7 -7z" />
    <path d="M9893 8173 c4 -3 10 -3 14 0 3 4 0 7 -7 7 -7 0 -10 -3 -7 -7z" />
    <path d="M3383 8163 c4 -3 10 -3 14 0 3 4 0 7 -7 7 -7 0 -10 -3 -7 -7z" />
    <path d="M10043 8163 c4 -3 10 -3 14 0 3 4 0 7 -7 7 -7 0 -10 -3 -7 -7z" />
    <path d="M10193 8143 c4 -3 10 -3 14 0 3 4 0 7 -7 7 -7 0 -10 -3 -7 -7z" />
    <path d="M10343 8133 c4 -3 10 -3 14 0 3 4 0 7 -7 7 -7 0 -10 -3 -7 -7z" />
    <path d="M10403 8123 c4 -3 10 -3 14 0 3 4 0 7 -7 7 -7 0 -10 -3 -7 -7z" />
    <path d="M2883 8103 c4 -3 10 -3 14 0 3 4 0 7 -7 7 -7 0 -10 -3 -7 -7z" />
    <path d="M10543 8103 c4 -3 10 -3 14 0 3 4 0 7 -7 7 -7 0 -10 -3 -7 -7z" />
    <path d="M2733 8093 c4 -3 10 -3 14 0 3 4 0 7 -7 7 -7 0 -10 -3 -7 -7z" />
    <path d="M10843 8073 c4 -3 10 -3 14 0 3 4 0 7 -7 7 -7 0 -10 -3 -7 -7z" />
    <path d="M10903 8063 c4 -3 10 -3 14 0 3 4 0 7 -7 7 -7 0 -10 -3 -7 -7z" />
    <path d="M11053 8053 c4 -3 10 -3 14 0 3 4 0 7 -7 7 -7 0 -10 -3 -7 -7z" />
    <path d="M2233 8033 c4 -3 10 -3 14 0 3 4 0 7 -7 7 -7 0 -10 -3 -7 -7z" />
    <path d="M2083 8023 c4 -3 10 -3 14 0 3 4 0 7 -7 7 -7 0 -10 -3 -7 -7z" />
    <path d="M2023 8013 c4 -3 10 -3 14 0 3 4 0 7 -7 7 -7 0 -10 -3 -7 -7z" />
    <path d="M11553 7993 c4 -3 10 -3 14 0 3 4 0 7 -7 7 -7 0 -10 -3 -7 -7z" />
    <path d="M1723 7983 c4 -3 10 -3 14 0 3 4 0 7 -7 7 -7 0 -10 -3 -7 -7z" />
    <path d="M11703 7983 c4 -3 10 -3 14 0 3 4 0 7 -7 7 -7 0 -10 -3 -7 -7z" />
    <path d="M1583 7963 c4 -3 10 -3 14 0 3 4 0 7 -7 7 -7 0 -10 -3 -7 -7z" />
    <path d="M12003 7953 c4 -3 10 -3 14 0 3 4 0 7 -7 7 -7 0 -10 -3 -7 -7z" />
    <path d="M1373 7943 c4 -3 10 -3 14 0 3 4 0 7 -7 7 -7 0 -10 -3 -7 -7z" />
    <path d="M1223 7923 c4 -3 10 -3 14 0 3 4 0 7 -7 7 -7 0 -10 -3 -7 -7z" />
    <path d="M12203 7923 c4 -3 10 -3 14 0 3 4 0 7 -7 7 -7 0 -10 -3 -7 -7z" />
    <path d="M1150 7886 c0 -3 9 -10 20 -16 11 -6 20 -8 20 -6 0 3 -9 10 -20 16
-11 6 -20 8 -20 6z" />
    <path d="M1225 7820 c3 -5 8 -10 11 -10 3 0 2 5 -1 10 -3 6 -8 10 -11 10 -3 0
-2 -4 1 -10z" />
    <path d="M12203 7813 c4 -3 10 -3 14 0 3 4 0 7 -7 7 -7 0 -10 -3 -7 -7z" />
    <path d="M1330 7726 c0 -2 8 -10 18 -17 l17 -14 -14 18 c-13 16 -21 21 -21 13z" />
    <path d="M11964 7598 l-7 -11 11 7 c12 7 16 16 8 16 -3 0 -8 -5 -12 -12z" />
    <path d="M1525 7550 c3 -5 8 -10 11 -10 3 0 2 5 -1 10 -3 6 -8 10 -11 10 -3 0
-2 -4 1 -10z" />
    <path d="M1590 7496 c0 -2 8 -10 18 -17 l17 -14 -14 18 c-13 16 -21 21 -21 13z" />
    <path d="M11770 7430 l-15 -10 12 0 c6 0 15 5 18 10 8 12 4 12 -15 0z" />
    <path d="M1675 7420 c3 -5 8 -10 11 -10 3 0 2 5 -1 10 -3 6 -8 10 -11 10 -3 0
-2 -4 1 -10z" />
    <path d="M1710 7386 c0 -2 8 -10 18 -17 l17 -14 -14 18 c-13 16 -21 21 -21 13z" />
    <path d="M11704 7368 l-7 -11 11 7 c12 7 16 16 8 16 -3 0 -8 -5 -12 -12z" />
    <path d="M11589 7263 l-14 -18 18 14 c9 7 17 15 17 17 0 8 -8 3 -21 -13z" />
    <path d="M11404 7098 l-7 -11 11 7 c7 4 12 9 12 12 0 8 -9 4 -16 -8z" />
    <path d="M2095 7040 c3 -5 8 -10 11 -10 3 0 2 5 -1 10 -3 6 -8 10 -11 10 -3 0
-2 -4 1 -10z" />
    <path d="M2175 6970 c3 -5 8 -10 11 -10 3 0 2 5 -1 10 -3 6 -8 10 -11 10 -3 0
-2 -4 1 -10z" />
    <path d="M11209 6923 l-14 -18 18 14 c9 7 17 15 17 17 0 8 -8 3 -21 -13z" />
    <path d="M2233 6913 c4 -3 10 -3 14 0 3 4 0 7 -7 7 -7 0 -10 -3 -7 -7z" />
    <path d="M2285 6870 c3 -5 8 -10 11 -10 3 0 2 5 -1 10 -3 6 -8 10 -11 10 -3 0
-2 -4 1 -10z" />
    <path d="M11134 6858 l-7 -11 11 7 c7 4 12 9 12 12 0 8 -9 4 -16 -8z" />
    <path d="M2355 6810 c3 -5 8 -10 11 -10 3 0 2 5 -1 10 -3 6 -8 10 -11 10 -3 0
-2 -4 1 -10z" />
    <path d="M11070 6805 l-13 -15 17 6 c9 3 16 10 16 15 0 13 -6 11 -20 -6z" />
    <path d="M2400 6766 c0 -3 9 -10 20 -16 11 -6 20 -8 20 -6 0 3 -9 10 -20 16
-11 6 -20 8 -20 6z" />
    <path d="M2475 6700 c3 -5 8 -10 11 -10 2 0 4 5 4 10 0 6 -5 10 -11 10 -5 0
-7 -4 -4 -10z" />
    <path d="M10954 6698 l-7 -11 11 7 c12 7 16 16 8 16 -3 0 -8 -5 -12 -12z" />
    <path d="M10894 6644 l-19 -15 23 11 c12 6 22 13 22 15 0 8 -5 6 -26 -11z" />
    <path d="M2600 6590 c0 -7 3 -10 7 -7 3 4 3 10 0 14 -4 3 -7 0 -7 -7z" />
    <path d="M10834 6588 l-7 -11 11 7 c12 7 16 16 8 16 -3 0 -8 -5 -12 -12z" />
    <path d="M10764 6528 l-19 -23 23 19 c21 18 27 26 19 26 -2 0 -12 -10 -23 -22z" />
    <path d="M2667 6529 c7 -7 15 -10 18 -7 3 3 -2 9 -12 12 l-18 7 12 -12z" />
    <path d="M2720 6476 c0 -2 7 -7 16 -10 l15 -6 -6 10 c-6 10 -25 14 -25 6z" />
    <path d="M10700 6470 l-15 -10 12 0 c6 0 15 5 18 10 8 12 4 12 -15 0z" />
    <path d="M10639 6413 l-14 -18 18 14 c9 7 17 15 17 17 0 8 -8 3 -21 -13z" />
    <path d="M2840 6376 c0 -2 7 -9 15 -16 l15 -12 0 10 c0 5 -7 12 -15 16 -8 3
-15 4 -15 2z" />
    <path d="M10574 6358 l-7 -11 11 7 c12 7 16 16 8 16 -3 0 -8 -5 -12 -12z" />
    <path d="M10520 6310 c-8 -5 -12 -12 -9 -15 4 -3 12 1 19 10 14 17 11 19 -10
5z" />
    <path d="M2920 6300 c0 -5 5 -10 11 -10 5 0 7 5 4 10 -3 6 -8 10 -11 10 -2 0
-4 -4 -4 -10z" />
    <path d="M2980 6251 c0 -5 7 -12 16 -15 l17 -6 -13 15 c-14 17 -20 19 -20 6z" />
    <path d="M10450 6249 c0 -5 5 -7 10 -4 6 3 10 8 10 11 0 2 -4 4 -10 4 -5 0
-10 -5 -10 -11z" />
    <path d="M3045 6190 c3 -5 8 -10 11 -10 3 0 2 5 -1 10 -3 6 -8 10 -11 10 -3 0
-2 -4 1 -10z" />
    <path d="M10380 6185 l-13 -15 17 6 c9 3 16 10 16 15 0 13 -6 11 -20 -6z" />
    <path d="M3100 6146 c0 -2 8 -10 18 -17 l17 -14 -14 18 c-13 16 -21 21 -21 13z" />
    <path d="M10330 6140 c0 -7 3 -10 7 -7 3 4 3 10 0 14 -4 3 -7 0 -7 -7z" />
    <path d="M3160 6086 c0 -2 7 -7 16 -10 l15 -6 -6 10 c-6 10 -25 14 -25 6z" />
    <path d="M10260 6080 l-15 -10 12 0 c6 0 15 5 18 10 8 12 4 12 -15 0z" />
    <path d="M3235 6020 c10 -11 20 -20 23 -20 3 0 -3 9 -13 20 -10 11 -20 20 -23
20 -3 0 3 -9 13 -20z" />
    <path d="M10195 6020 l-6 -10 15 6 c18 7 21 14 7 14 -6 0 -13 -4 -16 -10z" />
    <path d="M3305 5960 c3 -5 8 -10 11 -10 3 0 2 5 -1 10 -3 6 -8 10 -11 10 -3 0
-2 -4 1 -10z" />
    <path d="M10079 5913 l-14 -18 18 14 c9 7 17 15 17 17 0 8 -8 3 -21 -13z" />
    <path d="M3350 5916 c0 -3 9 -10 20 -16 11 -6 20 -8 20 -6 0 3 -9 10 -20 16
-11 6 -20 8 -20 6z" />
    <path d="M3410 5866 c0 -2 8 -10 18 -17 l17 -14 -14 18 c-13 16 -21 21 -21 13z" />
    <path d="M10005 5850 c-3 -5 -1 -10 4 -10 6 0 11 5 11 10 0 6 -2 10 -4 10 -3
0 -8 -4 -11 -10z" />
    <path d="M3485 5800 c3 -5 8 -10 11 -10 3 0 2 5 -1 10 -3 6 -8 10 -11 10 -3 0
-2 -4 1 -10z" />
    <path d="M9940 5795 l-13 -15 17 6 c9 3 16 10 16 15 0 13 -6 11 -20 -6z" />
    <path d="M3530 5756 c0 -2 7 -9 15 -16 l15 -12 0 10 c0 5 -7 12 -15 16 -8 3
-15 4 -15 2z" />
    <path d="M9884 5738 l-7 -11 11 7 c7 4 12 9 12 12 0 8 -9 4 -16 -8z" />
    <path d="M3605 5690 c3 -5 8 -10 11 -10 2 0 4 5 4 10 0 6 -5 10 -11 10 -5 0
-7 -4 -4 -10z" />
    <path d="M9819 5683 l-14 -18 18 14 c16 13 21 21 13 21 -2 0 -10 -8 -17 -17z" />
    <path d="M3670 5631 c0 -5 7 -12 16 -15 l17 -6 -13 15 c-14 17 -20 19 -20 6z" />
    <path d="M9760 5629 c0 -5 5 -7 10 -4 6 3 10 8 10 11 0 2 -4 4 -10 4 -5 0 -10
-5 -10 -11z" />
    <path d="M9694 5568 l-19 -23 23 19 c21 18 27 26 19 26 -2 0 -12 -10 -23 -22z" />
    <path d="M3737 5569 c7 -7 15 -10 18 -7 3 3 -2 9 -12 12 l-18 7 12 -12z" />
    <path d="M3797 5519 c7 -7 15 -10 18 -7 3 3 -2 9 -12 12 l-18 7 12 -12z" />
    <path d="M9624 5508 l-7 -11 11 7 c7 4 12 9 12 12 0 8 -9 4 -16 -8z" />
    <path d="M3851 5467 c2 -1 13 -9 24 -17 l20 -15 -14 18 c-7 9 -18 17 -24 17
-6 0 -8 -1 -6 -3z" />
    <path d="M9570 5460 l-15 -10 12 0 c6 0 15 5 18 10 8 12 4 12 -15 0z" />
    <path d="M3910 5416 c0 -2 7 -9 15 -16 l15 -12 0 10 c0 5 -7 12 -15 16 -8 3
-15 4 -15 2z" />
    <path d="M9504 5398 l-7 -11 11 7 c12 7 16 16 8 16 -3 0 -8 -5 -12 -12z" />
    <path d="M9375 5279 c-4 -6 -5 -12 -2 -15 2 -3 7 2 10 11 7 17 1 20 -8 4z" />
    <path d="M9366 5117 c3 -10 9 -15 12 -12 3 3 0 11 -7 18 l-12 12 7 -18z" />
    <path d="M9386 5027 c3 -10 9 -15 12 -12 3 3 0 11 -7 18 l-12 12 7 -18z" />
    <path d="M9420 4870 c0 -7 3 -10 7 -7 3 4 3 10 0 14 -4 3 -7 0 -7 -7z" />
    <path d="M9436 4787 c3 -10 9 -15 12 -12 3 3 0 11 -7 18 l-12 12 7 -18z" />
    <path d="M9456 4697 c3 -10 9 -15 12 -12 3 3 0 11 -7 18 l-12 12 7 -18z" />
    <path d="M3970 4650 c0 -7 3 -10 7 -7 3 4 3 10 0 14 -4 3 -7 0 -7 -7z" />
    <path d="M3946 4555 c-9 -26 -7 -32 5 -12 6 10 9 21 6 23 -2 3 -7 -2 -11 -11z" />
    <path d="M9490 4540 c0 -7 3 -10 7 -7 3 4 3 10 0 14 -4 3 -7 0 -7 -7z" />
    <path d="M3920 4450 c0 -7 3 -10 7 -7 3 4 3 10 0 14 -4 3 -7 0 -7 -7z" />
    <path d="M9510 4450 c0 -7 3 -10 7 -7 3 4 3 10 0 14 -4 3 -7 0 -7 -7z" />
    <path d="M9530 4360 c0 -7 3 -10 7 -7 3 4 3 10 0 14 -4 3 -7 0 -7 -7z" />
    <path d="M3896 4313 l-7 -18 12 12 c7 7 10 15 7 18 -3 3 -9 -2 -12 -12z" />
    <path d="M3876 4225 c-9 -26 -7 -32 5 -12 6 10 9 21 6 23 -2 3 -7 -2 -11 -11z" />
    <path d="M9560 4210 c0 -7 3 -10 7 -7 3 4 3 10 0 14 -4 3 -7 0 -7 -7z" />
    <path d="M3850 4120 c0 -7 3 -10 7 -7 3 4 3 10 0 14 -4 3 -7 0 -7 -7z" />
    <path d="M9580 4120 c0 -7 3 -10 7 -7 3 4 3 10 0 14 -4 3 -7 0 -7 -7z" />
    <path d="M3830 4030 c0 -7 3 -10 7 -7 3 4 3 10 0 14 -4 3 -7 0 -7 -7z" />
    <path d="M9600 4030 c0 -7 3 -10 7 -7 3 4 3 10 0 14 -4 3 -7 0 -7 -7z" />
    <path d="M9610 3990 c0 -7 3 -10 7 -7 3 4 3 10 0 14 -4 3 -7 0 -7 -7z" />
    <path d="M3806 3893 l-7 -18 12 12 c7 7 10 15 7 18 -3 3 -9 -2 -12 -12z" />
    <path d="M9680 3660 c0 -7 3 -10 7 -7 3 4 3 10 0 14 -4 3 -7 0 -7 -7z" />
    <path d="M9700 3570 c0 -7 3 -10 7 -7 3 4 3 10 0 14 -4 3 -7 0 -7 -7z" />
    <path d="M3695 3375 c-2 -11 -11 -49 -19 -85 -28 -120 -38 -165 -52 -235 -7
-38 -18 -88 -23 -110 -5 -22 -14 -65 -21 -95 -7 -30 -16 -71 -20 -90 -17 -75
-31 -138 -45 -210 -8 -41 -19 -93 -24 -115 -5 -22 -14 -65 -21 -95 -7 -30 -16
-73 -21 -95 -5 -22 -16 -74 -24 -115 -8 -41 -19 -93 -24 -115 -5 -22 -14 -65
-21 -95 -14 -63 -28 -128 -41 -185 -5 -22 -16 -74 -24 -115 -8 -41 -20 -97
-26 -125 -21 -95 -26 -125 -22 -125 7 0 154 81 163 90 3 3 23 14 45 25 22 11
42 23 43 28 2 4 7 7 12 7 6 0 63 31 220 121 14 8 27 16 30 19 3 3 23 14 45 25
22 11 42 22 45 25 3 3 16 11 30 19 14 8 68 39 120 69 52 30 118 66 145 81 28
14 52 28 55 31 6 6 35 23 95 56 22 12 81 45 130 74 81 47 114 66 235 133 19
10 40 23 45 27 6 4 33 20 60 36 58 32 75 41 210 119 55 31 118 67 140 79 61
34 89 50 95 56 3 3 23 14 45 25 22 11 42 23 43 28 2 4 7 7 12 7 6 0 63 31 220
121 14 8 27 16 30 19 3 3 23 14 45 25 22 11 42 22 45 25 3 3 16 11 30 19 14 8
68 39 120 69 52 30 118 66 145 81 28 14 52 28 55 31 5 5 33 22 95 56 22 12 78
44 126 71 47 28 112 65 145 83 32 18 75 42 94 53 19 11 47 28 62 38 14 11 29
19 32 19 4 0 24 11 46 25 22 14 60 28 84 31 l44 6 48 -23 c27 -13 51 -27 52
-31 2 -5 8 -8 13 -8 5 0 26 -11 47 -23 20 -13 64 -39 97 -57 33 -18 76 -42 95
-53 19 -11 55 -31 80 -45 25 -13 50 -28 55 -32 11 -9 354 -204 400 -228 17 -8
41 -23 55 -32 27 -19 61 -38 167 -96 37 -20 73 -40 78 -44 6 -5 30 -19 55 -32
59 -32 94 -52 100 -58 3 -3 14 -10 25 -16 37 -20 109 -61 210 -119 55 -32 123
-69 150 -84 28 -14 52 -28 55 -31 9 -9 65 -41 93 -53 15 -6 27 -15 27 -19 0
-4 5 -8 10 -8 6 0 27 -11 48 -23 20 -13 64 -39 97 -57 33 -18 74 -41 90 -50
17 -10 46 -26 65 -36 19 -11 37 -21 40 -24 6 -6 -5 1 230 -133 96 -55 195
-111 220 -124 25 -14 50 -29 55 -33 11 -8 45 -28 152 -86 37 -20 80 -45 95
-56 14 -10 30 -18 35 -18 4 0 25 -11 44 -24 20 -14 58 -37 85 -52 50 -28 59
-33 181 -103 40 -22 75 -41 79 -41 4 0 3 15 -1 33 -4 17 -11 50 -16 72 -5 22
-16 74 -24 115 -8 41 -19 93 -24 115 -5 22 -14 65 -21 95 -7 30 -16 73 -21 95
-5 22 -16 74 -24 115 -8 41 -19 93 -24 115 -5 22 -14 65 -21 95 -7 30 -16 71
-20 90 -18 78 -33 148 -45 210 -7 36 -35 169 -64 295 -28 127 -56 255 -62 285
-6 30 -15 69 -19 85 -4 17 -13 57 -20 90 -7 33 -15 71 -19 85 l-8 25 -3022 5
-3022 5 -4 -20z" />
  </g>
  <g transform="translate(0.000000,1341.000000) scale(0.100000,-0.100000)" fill="#ffaf00" stroke="none">
    <path d="M6706 11948 c-10 -20 -19 -43 -20 -51 -1 -8 -8 -22 -15 -30 -7 -9
-14 -23 -15 -30 -1 -8 -7 -21 -14 -29 -6 -8 -13 -23 -15 -34 -2 -10 -11 -33
-20 -50 -9 -17 -13 -34 -10 -38 4 -3 2 -6 -4 -6 -9 0 -14 -9 -27 -50 -1 -5
-10 -24 -73 -155 -13 -28 -25 -57 -26 -65 -1 -9 -10 -26 -20 -40 -9 -13 -17
-28 -17 -32 0 -3 -5 -19 -12 -35 -6 -15 -12 -30 -13 -33 0 -3 -9 -20 -18 -37
-10 -18 -14 -33 -10 -33 5 0 3 -4 -2 -8 -14 -10 -53 -92 -53 -112 0 -3 -11
-26 -26 -52 -14 -26 -26 -53 -26 -62 0 -8 -4 -16 -10 -18 -5 -1 -11 -13 -13
-25 -1 -11 -8 -27 -15 -35 -6 -8 -13 -23 -15 -34 -2 -10 -9 -30 -17 -44 -28
-49 -48 -98 -42 -104 3 -3 0 -6 -6 -6 -7 0 -12 -9 -12 -20 0 -11 -4 -20 -10
-20 -5 0 -10 -5 -10 -11 0 -12 -33 -91 -55 -131 -8 -14 -15 -33 -15 -41 0 -9
-4 -17 -10 -19 -5 -1 -11 -13 -13 -25 -1 -11 -8 -27 -15 -35 -6 -8 -13 -23
-15 -34 -1 -10 -6 -24 -10 -31 -28 -45 -67 -128 -67 -143 0 -11 -5 -22 -10
-25 -6 -4 -8 -11 -5 -16 4 -5 1 -9 -4 -9 -6 0 -11 -9 -11 -20 0 -11 -4 -20 -9
-20 -5 0 -12 -13 -16 -29 -3 -16 -13 -35 -21 -42 -8 -6 -14 -21 -14 -33 0 -11
-7 -30 -15 -40 -8 -11 -15 -28 -15 -37 0 -10 -4 -19 -10 -21 -5 -1 -11 -12
-13 -24 -1 -12 -9 -32 -18 -45 -32 -52 -79 -166 -71 -173 3 -3 0 -6 -6 -6 -7
0 -12 -9 -12 -20 0 -11 -4 -20 -10 -20 -5 0 -10 -6 -10 -12 0 -7 -7 -26 -15
-42 -9 -16 -17 -37 -18 -45 -1 -9 -10 -27 -20 -41 -9 -13 -17 -32 -17 -42 0
-10 -4 -18 -9 -18 -5 0 -12 -10 -16 -22 -4 -13 -8 -25 -10 -28 -28 -63 -35
-82 -35 -94 0 -8 -3 -16 -7 -18 -12 -5 -53 -91 -53 -110 0 -10 -4 -18 -9 -18
-5 0 -13 -15 -16 -32 -4 -18 -11 -35 -16 -38 -5 -3 -10 -15 -11 -26 -2 -10
-11 -30 -21 -44 -9 -13 -17 -32 -17 -42 0 -10 -4 -18 -9 -18 -7 0 -12 -10 -20
-42 0 -5 -10 -24 -21 -43 -11 -20 -20 -44 -20 -54 0 -11 -3 -21 -7 -23 -13 -5
-53 -88 -53 -108 0 -10 -7 -23 -15 -30 -8 -7 -15 -23 -15 -36 0 -13 -4 -24 -9
-24 -7 0 -22 -36 -18 -43 1 -1 -6 -13 -16 -27 -9 -13 -17 -32 -17 -41 0 -10
-4 -19 -9 -21 -5 -1 -11 -9 -13 -17 -2 -7 -13 -24 -26 -37 l-23 -24 -96 -10
c-52 -6 -98 -12 -102 -15 -4 -2 -27 -5 -52 -6 -24 0 -70 -5 -103 -11 -32 -5
-77 -9 -100 -10 -22 0 -45 -3 -50 -6 -5 -2 -38 -7 -75 -9 -36 -3 -68 -7 -70
-9 -2 -2 1033 -3 2300 -3 l2304 2 -60 8 c-64 9 -195 24 -335 39 -46 5 -86 7
-89 5 -2 -3 -9 -1 -15 4 -6 5 -38 10 -71 12 -33 1 -66 6 -72 12 -7 5 -13 6
-13 2 0 -4 -9 4 -20 18 -11 14 -20 29 -20 34 0 5 -6 15 -12 22 -7 6 -13 15
-13 19 -1 4 -7 18 -15 32 -8 14 -15 34 -17 44 -2 11 -9 26 -15 34 -7 8 -13 19
-14 26 -1 6 -17 43 -35 81 -18 39 -33 72 -34 75 0 3 -11 27 -23 54 -12 27 -22
52 -22 57 0 5 -5 9 -12 9 -6 0 -9 3 -5 6 3 4 0 19 -9 35 -8 16 -13 30 -12 31
2 2 -7 17 -20 35 -12 17 -22 40 -22 51 0 11 -7 25 -15 32 -8 7 -13 16 -10 20
2 4 -13 41 -34 81 -21 41 -39 79 -41 84 -2 8 -14 39 -26 65 -1 3 -5 15 -9 28
-4 12 -12 22 -18 22 -6 0 -8 3 -4 6 3 4 -1 21 -10 38 -10 17 -18 33 -19 36 -1
3 -5 15 -9 28 -4 12 -11 22 -16 22 -5 0 -9 11 -9 24 0 13 -7 29 -15 36 -8 7
-15 20 -15 30 0 9 -13 44 -29 76 -27 54 -63 132 -67 144 -1 3 -5 15 -9 28 -4
12 -11 22 -16 22 -5 0 -9 8 -9 18 0 10 -6 26 -14 37 -7 11 -14 22 -14 25 0 3
-6 19 -13 35 -7 17 -13 32 -14 35 -8 30 -18 50 -26 50 -5 0 -9 8 -9 18 0 9 -9
35 -20 57 -15 31 -53 113 -75 165 -2 3 -6 15 -10 28 -4 12 -11 22 -16 22 -5 0
-9 8 -9 18 0 10 -7 27 -15 38 -8 10 -15 28 -15 39 0 12 -6 27 -12 34 -7 6 -14
15 -14 19 -5 26 -18 52 -25 52 -5 0 -9 9 -9 19 0 11 -6 32 -14 48 -26 51 -81
167 -82 172 -7 29 -18 51 -24 51 -4 0 -11 16 -14 35 -4 19 -11 35 -16 35 -6 0
-10 11 -10 24 0 13 -6 29 -14 35 -8 7 -18 26 -21 42 -4 16 -10 29 -15 29 -4 0
-11 16 -14 35 -4 19 -11 35 -16 35 -6 0 -10 9 -10 19 0 16 -38 98 -67 144 -4
7 -8 18 -9 25 -2 8 -6 21 -10 30 -4 9 -8 19 -9 22 -2 3 -6 15 -10 28 -4 12
-11 22 -16 22 -5 0 -9 10 -9 22 0 12 -6 29 -13 37 -7 9 -24 44 -38 79 -13 34
-27 62 -31 62 -5 0 -8 9 -8 20 0 11 -4 20 -8 20 -5 0 -9 6 -9 13 0 7 -12 36
-26 66 -15 29 -27 58 -27 65 0 6 -8 23 -17 36 -10 14 -19 34 -21 45 -1 11 -7
22 -12 23 -6 2 -10 11 -10 21 0 9 -6 25 -14 36 -7 11 -15 29 -18 40 l-4 20
-18 -37z" />
  </g>
  <g transform="translate(0.000000,1341.000000) scale(0.100000,-0.100000)" fill="#d48800" stroke="none">
    <path d="M6714 11968 l-7 -11 11 7 c12 7 16 16 8 16 -3 0 -8 -5 -12 -12z" />
    <path d="M6654 11838 l-7 -11 11 7 c7 4 12 9 12 12 0 8 -9 4 -16 -8z" />
    <path d="M6564 11638 l-7 -11 11 7 c7 4 12 9 12 12 0 8 -9 4 -16 -8z" />
    <path d="M6494 11478 l-7 -11 11 7 c7 4 12 9 12 12 0 8 -9 4 -16 -8z" />
    <path d="M6970 11420 c0 -7 3 -10 7 -7 3 4 3 10 0 14 -4 3 -7 0 -7 -7z" />
    <path d="M6434 11348 l-7 -11 11 7 c12 7 16 16 8 16 -3 0 -8 -5 -12 -12z" />
    <path d="M7005 11340 c3 -5 8 -10 11 -10 3 0 2 5 -1 10 -3 6 -8 10 -11 10 -3
0 -2 -4 1 -10z" />
    <path d="M6404 11278 l-7 -11 11 7 c7 4 12 9 12 12 0 8 -9 4 -16 -8z" />
    <path d="M6344 11148 l-7 -11 11 7 c12 7 16 16 8 16 -3 0 -8 -5 -12 -12z" />
    <path d="M7095 11140 c3 -5 8 -10 11 -10 3 0 2 5 -1 10 -3 6 -8 10 -11 10 -3
0 -2 -4 1 -10z" />
    <path d="M6274 10988 l-7 -11 11 7 c7 4 12 9 12 12 0 8 -9 4 -16 -8z" />
    <path d="M7190 10930 c0 -7 3 -10 7 -7 3 4 3 10 0 14 -4 3 -7 0 -7 -7z" />
    <path d="M6184 10788 l-7 -11 11 7 c12 7 16 16 8 16 -3 0 -8 -5 -12 -12z" />
    <path d="M7255 10780 c3 -5 8 -10 11 -10 3 0 2 5 -1 10 -3 6 -8 10 -11 10 -3
0 -2 -4 1 -10z" />
    <path d="M7295 10690 c3 -5 8 -10 11 -10 3 0 2 5 -1 10 -3 6 -8 10 -11 10 -3
0 -2 -4 1 -10z" />
    <path d="M7315 10650 c3 -5 8 -10 11 -10 3 0 2 5 -1 10 -3 6 -8 10 -11 10 -3
0 -2 -4 1 -10z" />
    <path d="M6094 10588 l-7 -11 11 7 c12 7 16 16 8 16 -3 0 -8 -5 -12 -12z" />
    <path d="M6054 10498 l-7 -11 11 7 c12 7 16 16 8 16 -3 0 -8 -5 -12 -12z" />
    <path d="M7385 10490 c3 -5 8 -10 11 -10 3 0 2 5 -1 10 -3 6 -8 10 -11 10 -3
0 -2 -4 1 -10z" />
    <path d="M7405 10450 c3 -5 8 -10 11 -10 3 0 2 5 -1 10 -3 6 -8 10 -11 10 -3
0 -2 -4 1 -10z" />
    <path d="M7475 10290 c3 -5 8 -10 11 -10 3 0 2 5 -1 10 -3 6 -8 10 -11 10 -3
0 -2 -4 1 -10z" />
    <path d="M5925 10219 c-4 -6 -5 -12 -2 -15 2 -3 7 2 10 11 7 17 1 20 -8 4z" />
    <path d="M7510 10210 c0 -7 3 -10 7 -7 3 4 3 10 0 14 -4 3 -7 0 -7 -7z" />
    <path d="M7565 10090 c3 -5 8 -10 11 -10 3 0 2 5 -1 10 -3 6 -8 10 -11 10 -3
0 -2 -4 1 -10z" />
    <path d="M5835 10019 c-4 -6 -5 -12 -2 -15 2 -3 7 2 10 11 7 17 1 20 -8 4z" />
    <path d="M7600 10011 c0 -6 4 -13 10 -16 l10 -6 -6 15 c-7 18 -14 21 -14 7z" />
    <path d="M5804 9938 l-7 -11 11 7 c7 4 12 9 12 12 0 8 -9 4 -16 -8z" />
    <path d="M7635 9930 c3 -5 8 -10 11 -10 3 0 2 5 -1 10 -3 6 -8 10 -11 10 -3 0
-2 -4 1 -10z" />
    <path d="M7695 9800 c3 -5 8 -10 11 -10 3 0 2 5 -1 10 -3 6 -8 10 -11 10 -3 0
-2 -4 1 -10z" />
    <path d="M7730 9720 c0 -7 3 -10 7 -7 3 4 3 10 0 14 -4 3 -7 0 -7 -7z" />
    <path d="M7765 9640 c3 -5 8 -10 11 -10 3 0 2 5 -1 10 -3 6 -8 10 -11 10 -3 0
-2 -4 1 -10z" />
    <path d="M7785 9600 c3 -5 8 -10 11 -10 3 0 2 5 -1 10 -3 6 -8 10 -11 10 -3 0
-2 -4 1 -10z" />
    <path d="M7855 9440 c3 -5 8 -10 11 -10 3 0 2 5 -1 10 -3 6 -8 10 -11 10 -3 0
-2 -4 1 -10z" />
    <path d="M5544 9368 l-7 -11 11 7 c7 4 12 9 12 12 0 8 -9 4 -16 -8z" />
    <path d="M7915 9310 c3 -5 8 -10 11 -10 3 0 2 5 -1 10 -3 6 -8 10 -11 10 -3 0
-2 -4 1 -10z" />
    <path d="M7945 9240 c3 -5 8 -10 11 -10 3 0 2 5 -1 10 -3 6 -8 10 -11 10 -3 0
-2 -4 1 -10z" />
    <path d="M5454 9168 l-7 -11 11 7 c12 7 16 16 8 16 -3 0 -8 -5 -12 -12z" />
    <path d="M7985 9150 c3 -5 8 -10 11 -10 3 0 2 5 -1 10 -3 6 -8 10 -11 10 -3 0
-2 -4 1 -10z" />
    <path d="M8006 9107 c3 -10 9 -15 12 -12 3 3 0 11 -7 18 l-12 12 7 -18z" />
    <path d="M8035 9040 c3 -5 8 -10 11 -10 3 0 2 5 -1 10 -3 6 -8 10 -11 10 -3 0
-2 -4 1 -10z" />
    <path d="M8075 8950 c3 -5 8 -10 11 -10 3 0 2 5 -1 10 -3 6 -8 10 -11 10 -3 0
-2 -4 1 -10z" />
    <path d="M5324 8878 l-7 -11 11 7 c12 7 16 16 8 16 -3 0 -8 -5 -12 -12z" />
    <path d="M5295 8809 c-4 -6 -5 -12 -2 -15 2 -3 7 2 10 11 7 17 1 20 -8 4z" />
    <path d="M8140 8800 c0 -7 3 -10 7 -7 3 4 3 10 0 14 -4 3 -7 0 -7 -7z" />
    <path d="M8165 8750 c3 -5 8 -10 11 -10 3 0 2 5 -1 10 -3 6 -8 10 -11 10 -3 0
-2 -4 1 -10z" />
    <path d="M5254 8718 l-7 -11 11 7 c7 4 12 9 12 12 0 8 -9 4 -16 -8z" />
    <path d="M5234 8678 l-7 -11 11 7 c12 7 16 16 8 16 -3 0 -8 -5 -12 -12z" />
    <path d="M8205 8660 c3 -5 8 -10 11 -10 3 0 2 5 -1 10 -3 6 -8 10 -11 10 -3 0
-2 -4 1 -10z" />
    <path d="M5205 8609 c-4 -6 -5 -12 -2 -15 2 -3 7 2 10 11 7 17 1 20 -8 4z" />
    <path d="M8230 8601 c0 -6 4 -13 10 -16 l10 -6 -6 15 c-7 18 -14 21 -14 7z" />
    <path d="M8255 8550 c3 -5 8 -10 11 -10 3 0 2 5 -1 10 -3 6 -8 10 -11 10 -3 0
-2 -4 1 -10z" />
    <path d="M5164 8518 l-7 -11 11 7 c12 7 16 16 8 16 -3 0 -8 -5 -12 -12z" />
    <path d="M8295 8460 c3 -5 8 -10 11 -10 3 0 2 5 -1 10 -3 6 -8 10 -11 10 -3 0
-2 -4 1 -10z" />
    <path d="M5094 8378 l-7 -11 11 7 c7 4 12 9 12 12 0 8 -9 4 -16 -8z" />
    <path d="M5033 8343 c4 -3 10 -3 14 0 3 4 0 7 -7 7 -7 0 -10 -3 -7 -7z" />
    <path d="M4768 8313 c7 -3 16 -2 19 1 4 3 -2 6 -13 5 l-19 -1 13 -5z" />
    <path d="M8673 8313 c4 -3 10 -3 14 0 3 4 0 7 -7 7 -7 0 -10 -3 -7 -7z" />
    <path d="M4698 8303 c6 -2 18 -2 25 0 6 3 1 5 -13 5 -14 0 -19 -2 -12 -5z" />
    <path d="M4403 8273 c4 -3 10 -3 14 0 3 4 0 7 -7 7 -7 0 -10 -3 -7 -7z" />
    <path d="M9018 8273 c6 -2 18 -2 25 0 6 3 1 5 -13 5 -14 0 -19 -2 -12 -5z" />
    <path d="M4338 8263 c7 -3 16 -2 19 1 4 3 -2 6 -13 5 l-19 -1 13 -5z" />
    <path d="M9078 8263 c6 -2 18 -2 25 0 6 3 1 5 -13 5 -14 0 -19 -2 -12 -5z" />
    <path d="M9323 8243 c4 -3 10 -3 14 0 3 4 0 7 -7 7 -7 0 -10 -3 -7 -7z" />
    <path d="M4058 8233 c7 -3 16 -2 19 1 4 3 -2 6 -13 5 l-19 -1 13 -5z" />
    <path d="M9383 8233 c4 -3 10 -3 14 0 3 4 0 7 -7 7 -7 0 -10 -3 -7 -7z" />
    <path d="M3748 8203 c6 -2 18 -2 25 0 6 3 1 5 -13 5 -14 0 -19 -2 -12 -5z" />
    <path d="M9668 8203 c7 -3 16 -2 19 1 4 3 -2 6 -13 5 l-19 -1 13 -5z" />
    <path d="M3688 8193 c7 -3 16 -2 19 1 4 3 -2 6 -13 5 l-19 -1 13 -5z" />
    <path d="M9728 8193 c6 -2 18 -2 25 0 6 3 1 5 -13 5 -14 0 -19 -2 -12 -5z" />
    <path d="M3408 8163 c7 -3 16 -2 19 1 4 3 -2 6 -13 5 l-19 -1 13 -5z" />
    <path d="M10028 8163 c7 -3 16 -2 19 1 4 3 -2 6 -13 5 l-19 -1 13 -5z" />
    <path d="M3348 8153 c7 -3 16 -2 19 1 4 3 -2 6 -13 5 l-19 -1 13 -5z" />
    <path d="M10098 8153 c7 -3 16 -2 19 1 4 3 -2 6 -13 5 l-19 -1 13 -5z" />
    <path d="M3098 8133 c7 -3 16 -2 19 1 4 3 -2 6 -13 5 l-19 -1 13 -5z" />
    <path d="M3038 8123 c6 -2 18 -2 25 0 6 3 1 5 -13 5 -14 0 -19 -2 -12 -5z" />
    <path d="M10378 8123 c7 -3 16 -2 19 1 4 3 -2 6 -13 5 l-19 -1 13 -5z" />
    <path d="M2743 8093 c4 -3 10 -3 14 0 3 4 0 7 -7 7 -7 0 -10 -3 -7 -7z" />
    <path d="M10678 8093 c6 -2 18 -2 25 0 6 3 1 5 -13 5 -14 0 -19 -2 -12 -5z" />
    <path d="M2698 8083 c7 -3 16 -2 19 1 4 3 -2 6 -13 5 l-19 -1 13 -5z" />
    <path d="M10748 8083 c7 -3 16 -2 19 1 4 3 -2 6 -13 5 l-19 -1 13 -5z" />
    <path d="M2388 8053 c6 -2 18 -2 25 0 6 3 1 5 -13 5 -14 0 -19 -2 -12 -5z" />
    <path d="M2268 8043 c7 -3 16 -2 19 1 4 3 -2 6 -13 5 l-19 -1 13 -5z" />
    <path d="M11148 8043 c6 -2 18 -2 25 0 6 3 1 5 -13 5 -14 0 -19 -2 -12 -5z" />
    <path d="M2093 8023 c4 -3 10 -3 14 0 3 4 0 7 -7 7 -7 0 -10 -3 -7 -7z" />
    <path d="M11338 8023 c7 -3 16 -2 19 1 4 3 -2 6 -13 5 l-19 -1 13 -5z" />
    <path d="M2033 8013 c4 -3 10 -3 14 0 3 4 0 7 -7 7 -7 0 -10 -3 -7 -7z" />
    <path d="M11388 8013 c6 -2 18 -2 25 0 6 3 1 5 -13 5 -14 0 -19 -2 -12 -5z" />
    <path d="M1748 7983 c7 -3 16 -2 19 1 4 3 -2 6 -13 5 l-19 -1 13 -5z" />
    <path d="M11693 7983 c4 -3 10 -3 14 0 3 4 0 7 -7 7 -7 0 -10 -3 -7 -7z" />
    <path d="M1678 7973 c6 -2 18 -2 25 0 6 3 1 5 -13 5 -14 0 -19 -2 -12 -5z" />
    <path d="M11738 7973 c7 -3 16 -2 19 1 4 3 -2 6 -13 5 l-19 -1 13 -5z" />
    <path d="M1383 7943 c4 -3 10 -3 14 0 3 4 0 7 -7 7 -7 0 -10 -3 -7 -7z" />
    <path d="M12038 7943 c6 -2 18 -2 25 0 6 3 1 5 -13 5 -14 0 -19 -2 -12 -5z" />
    <path d="M1278 7933 c7 -3 16 -2 19 1 4 3 -2 6 -13 5 l-19 -1 13 -5z" />
    <path d="M1135 7900 c10 -11 20 -20 23 -20 3 0 -3 9 -13 20 -10 11 -20 20 -23
20 -3 0 3 -9 13 -20z" />
    <path d="M1180 7866 c0 -2 8 -10 18 -17 l17 -14 -14 18 c-13 16 -21 21 -21 13z" />
    <path d="M12179 7793 l-14 -18 18 14 c9 7 17 15 17 17 0 8 -8 3 -21 -13z" />
    <path d="M1325 7730 c3 -5 8 -10 11 -10 3 0 2 5 -1 10 -3 6 -8 10 -11 10 -3 0
-2 -4 1 -10z" />
    <path d="M11984 7618 l-19 -23 23 19 c21 18 27 26 19 26 -2 0 -12 -10 -23 -22z" />
    <path d="M11934 7578 l-7 -11 11 7 c7 4 12 9 12 12 0 8 -9 4 -16 -8z" />
    <path d="M1515 7560 c3 -5 8 -10 11 -10 3 0 2 5 -1 10 -3 6 -8 10 -11 10 -3 0
-2 -4 1 -10z" />
    <path d="M11799 7453 l-24 -28 28 24 c15 14 27 26 27 28 0 8 -8 1 -31 -24z" />
    <path d="M1685 7410 c3 -5 8 -10 11 -10 3 0 2 5 -1 10 -3 6 -8 10 -11 10 -3 0
-2 -4 1 -10z" />
    <path d="M11734 7398 l-7 -11 11 7 c12 7 16 16 8 16 -3 0 -8 -5 -12 -12z" />
    <path d="M11604 7278 l-7 -11 11 7 c12 7 16 16 8 16 -3 0 -8 -5 -12 -12z" />
    <path d="M1870 7246 c0 -2 8 -10 18 -17 l17 -14 -14 18 c-13 16 -21 21 -21 13z" />
    <path d="M11414 7108 l-7 -11 11 7 c12 7 16 16 8 16 -3 0 -8 -5 -12 -12z" />
    <path d="M2075 7060 c10 -11 20 -20 23 -20 3 0 -3 9 -13 20 -10 11 -20 20 -23
20 -3 0 3 -9 13 -20z" />
    <path d="M11244 6958 l-7 -11 11 7 c12 7 16 16 8 16 -3 0 -8 -5 -12 -12z" />
    <path d="M2205 6940 c3 -5 8 -10 11 -10 3 0 2 5 -1 10 -3 6 -8 10 -11 10 -3 0
-2 -4 1 -10z" />
    <path d="M2265 6890 c10 -11 20 -20 23 -20 3 0 -3 9 -13 20 -10 11 -20 20 -23
20 -3 0 3 -9 13 -20z" />
    <path d="M11049 6783 l-14 -18 18 14 c9 7 17 15 17 17 0 8 -8 3 -21 -13z" />
    <path d="M2455 6720 c10 -11 20 -20 23 -20 3 0 -3 9 -13 20 -10 11 -20 20 -23
20 -3 0 3 -9 13 -20z" />
    <path d="M10919 6663 l-14 -18 18 14 c9 7 17 15 17 17 0 8 -8 3 -21 -13z" />
    <path d="M10854 6608 l-19 -23 23 19 c21 18 27 26 19 26 -2 0 -12 -10 -23 -22z" />
    <path d="M2640 6556 c0 -2 8 -10 18 -17 l17 -14 -14 18 c-13 16 -21 21 -21 13z" />
    <path d="M10719 6483 l-14 -18 18 14 c9 7 17 15 17 17 0 8 -8 3 -21 -13z" />
    <path d="M10664 6438 l-19 -23 23 19 c21 18 27 26 19 26 -2 0 -12 -10 -23 -22z" />
    <path d="M10479 6273 l-14 -18 18 14 c9 7 17 15 17 17 0 8 -8 3 -21 -13z" />
    <path d="M3130 6116 c0 -2 8 -10 18 -17 l17 -14 -14 18 c-13 16 -21 21 -21 13z" />
    <path d="M3195 6060 c3 -5 8 -10 11 -10 3 0 2 5 -1 10 -3 6 -8 10 -11 10 -3 0
-2 -4 1 -10z" />
    <path d="M10174 5998 l-7 -11 11 7 c7 4 12 9 12 12 0 8 -9 4 -16 -8z" />
    <path d="M3335 5930 c10 -11 20 -20 23 -20 3 0 -3 9 -13 20 -10 11 -20 20 -23
20 -3 0 3 -9 13 -20z" />
    <path d="M3395 5880 c10 -11 20 -20 23 -20 3 0 -3 9 -13 20 -10 11 -20 20 -23
20 -3 0 3 -9 13 -20z" />
    <path d="M9979 5823 l-14 -18 18 14 c16 13 21 21 13 21 -2 0 -10 -8 -17 -17z" />
    <path d="M3510 5776 c0 -2 8 -10 18 -17 l17 -14 -14 18 c-13 16 -21 21 -21 13z" />
    <path d="M3585 5710 c10 -11 20 -20 23 -20 3 0 -3 9 -13 20 -10 11 -20 20 -23
20 -3 0 3 -9 13 -20z" />
    <path d="M9789 5653 l-14 -18 18 14 c16 13 21 21 13 21 -2 0 -10 -8 -17 -17z" />
    <path d="M9734 5608 l-7 -11 11 7 c7 4 12 9 12 12 0 8 -9 4 -16 -8z" />
    <path d="M3710 5596 c0 -2 8 -10 18 -17 l17 -14 -14 18 c-13 16 -21 21 -21 13z" />
    <path d="M9599 5483 l-24 -28 28 24 c15 14 27 26 27 28 0 8 -8 1 -31 -24z" />
    <path d="M3885 5440 c3 -5 8 -10 11 -10 3 0 2 5 -1 10 -3 6 -8 10 -11 10 -3 0
-2 -4 1 -10z" />
    <path d="M9534 5428 l-7 -11 11 7 c7 4 12 9 12 12 0 8 -9 4 -16 -8z" />
    <path d="M9394 5298 l-19 -23 23 19 c21 18 27 26 19 26 -2 0 -12 -10 -23 -22z" />
    <path d="M9364 5258 l-7 -11 11 7 c7 4 12 9 12 12 0 8 -9 4 -16 -8z" />
    <path d="M4076 5247 c3 -10 9 -15 12 -12 3 3 0 11 -7 18 l-12 12 7 -18z" />
    <path d="M4080 5160 c0 -7 3 -10 7 -7 3 4 3 10 0 14 -4 3 -7 0 -7 -7z" />
    <path d="M9370 5100 c0 -7 3 -10 7 -7 3 4 3 10 0 14 -4 3 -7 0 -7 -7z" />
    <path d="M4060 5070 c0 -7 3 -10 7 -7 3 4 3 10 0 14 -4 3 -7 0 -7 -7z" />
    <path d="M4040 4980 c0 -7 3 -10 7 -7 3 4 3 10 0 14 -4 3 -7 0 -7 -7z" />
    <path d="M3890 4300 c0 -7 3 -10 7 -7 3 4 3 10 0 14 -4 3 -7 0 -7 -7z" />
    <path d="M9540 4300 c0 -7 3 -10 7 -7 3 4 3 10 0 14 -4 3 -7 0 -7 -7z" />
    <path d="M9571 4174 l1 -19 5 13 c3 7 2 16 -1 19 -3 4 -6 -2 -5 -13z" />
    <path d="M9591 4084 l1 -19 5 13 c3 7 2 16 -1 19 -3 4 -6 -2 -5 -13z" />
    <path d="M9610 4000 c0 -7 3 -10 7 -7 3 4 3 10 0 14 -4 3 -7 0 -7 -7z" />
    <path d="M3820 3970 c0 -7 3 -10 7 -7 3 4 3 10 0 14 -4 3 -7 0 -7 -7z" />
    <path d="M3800 3880 c0 -7 3 -10 7 -7 3 4 3 10 0 14 -4 3 -7 0 -7 -7z" />
    <path d="M9630 3880 c0 -7 3 -10 7 -7 3 4 3 10 0 14 -4 3 -7 0 -7 -7z" />
    <path d="M9640 3850 c0 -7 3 -10 7 -7 3 4 3 10 0 14 -4 3 -7 0 -7 -7z" />
    <path d="M3780 3790 c0 -7 3 -10 7 -7 3 4 3 10 0 14 -4 3 -7 0 -7 -7z" />
    <path d="M9650 3790 c0 -7 3 -10 7 -7 3 4 3 10 0 14 -4 3 -7 0 -7 -7z" />
    <path d="M9660 3760 c0 -7 3 -10 7 -7 3 4 3 10 0 14 -4 3 -7 0 -7 -7z" />
    <path d="M9680 3670 c0 -7 3 -10 7 -7 3 4 3 10 0 14 -4 3 -7 0 -7 -7z" />
    <path d="M3750 3640 c0 -7 3 -10 7 -7 3 4 3 10 0 14 -4 3 -7 0 -7 -7z" />
    <path d="M3730 3550 c0 -7 3 -10 7 -7 3 4 3 10 0 14 -4 3 -7 0 -7 -7z" />
    <path d="M3720 3520 c0 -7 3 -10 7 -7 3 4 3 10 0 14 -4 3 -7 0 -7 -7z" />
    <path d="M9710 3520 c0 -7 3 -10 7 -7 3 4 3 10 0 14 -4 3 -7 0 -7 -7z" />
    <path d="M3710 3460 c0 -7 3 -10 7 -7 3 4 3 10 0 14 -4 3 -7 0 -7 -7z" />
    <path d="M9730 3430 c0 -7 3 -10 7 -7 3 4 3 10 0 14 -4 3 -7 0 -7 -7z" />
    <path d="M9750 3340 c0 -7 3 -10 7 -7 3 4 3 10 0 14 -4 3 -7 0 -7 -7z" />
    <path d="M3680 3310 c0 -7 3 -10 7 -7 3 4 3 10 0 14 -4 3 -7 0 -7 -7z" />
    <path d="M3660 3220 c0 -7 3 -10 7 -7 3 4 3 10 0 14 -4 3 -7 0 -7 -7z" />
    <path d="M6480 3210 l-15 -10 12 0 c6 0 15 5 18 10 8 12 4 12 -15 0z" />
    <path d="M3650 3190 c0 -7 3 -10 7 -7 3 4 3 10 0 14 -4 3 -7 0 -7 -7z" />
    <path d="M9780 3190 c0 -7 3 -10 7 -7 3 4 3 10 0 14 -4 3 -7 0 -7 -7z" />
    <path d="M6394 3158 l-7 -11 11 7 c7 4 12 9 12 12 0 8 -9 4 -16 -8z" />
    <path d="M6354 3138 l-7 -11 11 7 c12 7 16 16 8 16 -3 0 -8 -5 -12 -12z" />
    <path d="M7075 3140 c3 -5 8 -10 11 -10 3 0 2 5 -1 10 -3 6 -8 10 -11 10 -3 0
-2 -4 1 -10z" />
    <path d="M3640 3130 c0 -7 3 -10 7 -7 3 4 3 10 0 14 -4 3 -7 0 -7 -7z" />
    <path d="M3630 3100 c0 -7 3 -10 7 -7 3 4 3 10 0 14 -4 3 -7 0 -7 -7z" />
    <path d="M9800 3100 c0 -7 3 -10 7 -7 3 4 3 10 0 14 -4 3 -7 0 -7 -7z" />
    <path d="M9820 3010 c0 -7 3 -10 7 -7 3 4 3 10 0 14 -4 3 -7 0 -7 -7z" />
    <path d="M6040 2960 l-15 -10 12 0 c6 0 15 5 18 10 8 12 4 12 -15 0z" />
    <path d="M5974 2918 l-7 -11 11 7 c7 4 12 9 12 12 0 8 -9 4 -16 -8z" />
    <path d="M5914 2888 l-7 -11 11 7 c12 7 16 16 8 16 -3 0 -8 -5 -12 -12z" />
    <path d="M7515 2890 c3 -5 8 -10 11 -10 3 0 2 5 -1 10 -3 6 -8 10 -11 10 -3 0
-2 -4 1 -10z" />
    <path d="M5884 2868 l-7 -11 11 7 c12 7 16 16 8 16 -3 0 -8 -5 -12 -12z" />
    <path d="M7833 2703 c4 -3 10 -3 14 0 3 4 0 7 -7 7 -7 0 -10 -3 -7 -7z" />
    <path d="M5534 2668 l-7 -11 11 7 c7 4 12 9 12 12 0 8 -9 4 -16 -8z" />
    <path d="M5504 2648 l-7 -11 11 7 c12 7 16 16 8 16 -3 0 -8 -5 -12 -12z" />
    <path d="M7965 2630 c3 -5 8 -10 11 -10 3 0 2 5 -1 10 -3 6 -8 10 -11 10 -3 0
-2 -4 1 -10z" />
    <path d="M5154 2448 l-7 -11 11 7 c12 7 16 16 8 16 -3 0 -8 -5 -12 -12z" />
    <path d="M8273 2453 c4 -3 10 -3 14 0 3 4 0 7 -7 7 -7 0 -10 -3 -7 -7z" />
    <path d="M5064 2398 l-7 -11 11 7 c12 7 16 16 8 16 -3 0 -8 -5 -12 -12z" />
    <path d="M8405 2380 c3 -5 8 -10 11 -10 3 0 2 5 -1 10 -3 6 -8 10 -11 10 -3 0
-2 -4 1 -10z" />
    <path d="M4994 2358 l-7 -11 11 7 c7 4 12 9 12 12 0 8 -9 4 -16 -8z" />
    <path d="M8435 2360 c3 -5 8 -10 11 -10 3 0 2 5 -1 10 -3 6 -8 10 -11 10 -3 0
-2 -4 1 -10z" />
    <path d="M9970 2330 c0 -7 3 -10 7 -7 3 4 3 10 0 14 -4 3 -7 0 -7 -7z" />
    <path d="M9990 2240 c0 -7 3 -10 7 -7 3 4 3 10 0 14 -4 3 -7 0 -7 -7z" />
    <path d="M3441 2204 l1 -19 5 13 c3 7 2 16 -1 19 -3 4 -6 -2 -5 -13z" />
    <path d="M4714 2198 l-7 -11 11 7 c12 7 16 16 8 16 -3 0 -8 -5 -12 -12z" />
    <path d="M8713 2203 c4 -3 10 -3 14 0 3 4 0 7 -7 7 -7 0 -10 -3 -7 -7z" />
    <path d="M4680 2180 l-15 -10 12 0 c6 0 15 5 18 10 8 12 4 12 -15 0z" />
    <path d="M4644 2158 l-7 -11 11 7 c7 4 12 9 12 12 0 8 -9 4 -16 -8z" />
    <path d="M8785 2160 c3 -5 8 -10 11 -10 3 0 2 5 -1 10 -3 6 -8 10 -11 10 -3 0
-2 -4 1 -10z" />
    <path d="M4594 2128 l-7 -11 11 7 c7 4 12 9 12 12 0 8 -9 4 -16 -8z" />
    <path d="M3421 2114 l1 -19 5 13 c3 7 2 16 -1 19 -3 4 -6 -2 -5 -13z" />
    <path d="M4554 2108 l-7 -11 11 7 c12 7 16 16 8 16 -3 0 -8 -5 -12 -12z" />
    <path d="M8875 2110 c3 -5 8 -10 11 -10 3 0 2 5 -1 10 -3 6 -8 10 -11 10 -3 0
-2 -4 1 -10z" />
    <path d="M3400 2030 c0 -7 3 -10 7 -7 3 4 3 10 0 14 -4 3 -7 0 -7 -7z" />
    <path d="M10040 2000 c0 -7 3 -10 7 -7 3 4 3 10 0 14 -4 3 -7 0 -7 -7z" />
    <path d="M9155 1950 c3 -5 8 -10 11 -10 3 0 2 5 -1 10 -3 6 -8 10 -11 10 -3 0
-2 -4 1 -10z" />
    <path d="M4240 1930 l-15 -10 12 0 c6 0 15 5 18 10 8 12 4 12 -15 0z" />
    <path d="M9225 1910 c3 -5 8 -10 11 -10 3 0 2 5 -1 10 -3 6 -8 10 -11 10 -3 0
-2 -4 1 -10z" />
    <path d="M10060 1910 c0 -7 3 -10 7 -7 3 4 3 10 0 14 -4 3 -7 0 -7 -7z" />
    <path d="M4174 1888 l-7 -11 11 7 c7 4 12 9 12 12 0 8 -9 4 -16 -8z" />
    <path d="M3370 1880 c0 -7 3 -10 7 -7 3 4 3 10 0 14 -4 3 -7 0 -7 -7z" />
    <path d="M4114 1858 l-7 -11 11 7 c7 4 12 9 12 12 0 8 -9 4 -16 -8z" />
    <path d="M9315 1860 c3 -5 8 -10 11 -10 3 0 2 5 -1 10 -3 6 -8 10 -11 10 -3 0
-2 -4 1 -10z" />
    <path d="M10080 1820 c0 -7 3 -10 7 -7 3 4 3 10 0 14 -4 3 -7 0 -7 -7z" />
    <path d="M3350 1790 c0 -7 3 -10 7 -7 3 4 3 10 0 14 -4 3 -7 0 -7 -7z" />
    <path d="M3330 1700 c0 -7 3 -10 7 -7 3 4 3 10 0 14 -4 3 -7 0 -7 -7z" />
    <path d="M9633 1673 c4 -3 10 -3 14 0 3 4 0 7 -7 7 -7 0 -10 -3 -7 -7z" />
    <path d="M10110 1670 c0 -7 3 -10 7 -7 3 4 3 10 0 14 -4 3 -7 0 -7 -7z" />
    <path d="M9665 1660 c3 -5 8 -10 11 -10 3 0 2 5 -1 10 -3 6 -8 10 -11 10 -3 0
-2 -4 1 -10z" />
    <path d="M3734 1638 l-7 -11 11 7 c12 7 16 16 8 16 -3 0 -8 -5 -12 -12z" />
    <path d="M3704 1618 l-7 -11 11 7 c7 4 12 9 12 12 0 8 -9 4 -16 -8z" />
    <path d="M10130 1580 c0 -7 3 -10 7 -7 3 4 3 10 0 14 -4 3 -7 0 -7 -7z" />
    <path d="M3300 1550 c0 -7 3 -10 7 -7 3 4 3 10 0 14 -4 3 -7 0 -7 -7z" />
    <path d="M10150 1490 c0 -7 3 -10 7 -7 3 4 3 10 0 14 -4 3 -7 0 -7 -7z" />
    <path d="M3280 1460 c0 -7 3 -10 7 -7 3 4 3 10 0 14 -4 3 -7 0 -7 -7z" />
    <path d="M3354 1418 l-7 -11 11 7 c12 7 16 16 8 16 -3 0 -8 -5 -12 -12z" />
    <path d="M10073 1423 c4 -3 10 -3 14 0 3 4 0 7 -7 7 -7 0 -10 -3 -7 -7z" />
    <path d="M10135 1390 c3 -5 8 -10 11 -10 3 0 2 5 -1 10 -3 6 -8 10 -11 10 -3
0 -2 -4 1 -10z" />
    <path d="M3260 1369 c0 -5 5 -7 10 -4 6 3 10 8 10 11 0 2 -4 4 -10 4 -5 0 -10
-5 -10 -11z" />
  </g>
  <g transform="translate(0.000000,1341.000000) scale(0.100000,-0.100000)" fill="#ec9400" stroke="none">
    <path d="M6690 11920 c0 -7 3 -10 7 -7 3 4 3 10 0 14 -4 3 -7 0 -7 -7z" />
    <path d="M6740 11921 c0 -6 4 -13 10 -16 l10 -6 -6 15 c-7 18 -14 21 -14 7z" />
    <path d="M6660 11850 c0 -7 3 -10 7 -7 3 4 3 10 0 14 -4 3 -7 0 -7 -7z" />
    <path d="M6634 11798 l-7 -11 11 7 c12 7 16 16 8 16 -3 0 -8 -5 -12 -12z" />
    <path d="M6526 11553 l-7 -18 12 12 c7 7 10 15 7 18 -3 3 -9 -2 -12 -12z" />
    <path d="M6500 11490 c0 -7 3 -10 7 -7 3 4 3 10 0 14 -4 3 -7 0 -7 -7z" />
    <path d="M6965 11430 c3 -5 8 -10 11 -10 3 0 2 5 -1 10 -3 6 -8 10 -11 10 -3
0 -2 -4 1 -10z" />
    <path d="M6440 11360 c0 -7 3 -10 7 -7 3 4 3 10 0 14 -4 3 -7 0 -7 -7z" />
    <path d="M7075 11180 c3 -5 8 -10 11 -10 3 0 2 5 -1 10 -3 6 -8 10 -11 10 -3
0 -2 -4 1 -10z" />
    <path d="M7100 11130 c0 -7 3 -10 7 -7 3 4 3 10 0 14 -4 3 -7 0 -7 -7z" />
    <path d="M7185 10940 c3 -5 8 -10 11 -10 3 0 2 5 -1 10 -3 6 -8 10 -11 10 -3
0 -2 -4 1 -10z" />
    <path d="M7320 10640 c0 -7 3 -10 7 -7 3 4 3 10 0 14 -4 3 -7 0 -7 -7z" />
    <path d="M7346 10577 c3 -10 9 -15 12 -12 3 3 0 11 -7 18 l-12 12 7 -18z" />
    <path d="M7410 10440 c0 -7 3 -10 7 -7 3 4 3 10 0 14 -4 3 -7 0 -7 -7z" />
    <path d="M6004 10388 l-7 -11 11 7 c7 4 12 9 12 12 0 8 -9 4 -16 -8z" />
    <path d="M5944 10258 l-7 -11 11 7 c12 7 16 16 8 16 -3 0 -8 -5 -12 -12z" />
    <path d="M7515 10200 c3 -5 8 -10 11 -10 3 0 2 5 -1 10 -3 6 -8 10 -11 10 -3
0 -2 -4 1 -10z" />
    <path d="M5810 9950 c0 -7 3 -10 7 -7 3 4 3 10 0 14 -4 3 -7 0 -7 -7z" />
    <path d="M5724 9768 l-7 -11 11 7 c7 4 12 9 12 12 0 8 -9 4 -16 -8z" />
    <path d="M7820 9520 c0 -7 3 -10 7 -7 3 4 3 10 0 14 -4 3 -7 0 -7 -7z" />
    <path d="M8040 9030 c0 -7 3 -10 7 -7 3 4 3 10 0 14 -4 3 -7 0 -7 -7z" />
    <path d="M8145 8790 c3 -5 8 -10 11 -10 3 0 2 5 -1 10 -3 6 -8 10 -11 10 -3 0
-2 -4 1 -10z" />
    <path d="M8260 8540 c0 -7 3 -10 7 -7 3 4 3 10 0 14 -4 3 -7 0 -7 -7z" />
    <path d="M8315 8420 c3 -5 8 -10 11 -10 3 0 2 5 -1 10 -3 6 -8 10 -11 10 -3 0
-2 -4 1 -10z" />
    <path d="M4933 8333 c9 -2 23 -2 30 0 6 3 -1 5 -18 5 l-30 0 18 -5z" />
    <path d="M8473 8333 c4 -3 10 -3 14 0 3 4 0 7 -7 7 -7 0 -10 -3 -7 -7z" />
    <path d="M8503 8333 c4 -3 10 -3 14 0 3 4 0 7 -7 7 -7 0 -10 -3 -7 -7z" />
    <path d="M4873 8323 c4 -3 10 -3 14 0 3 4 0 7 -7 7 -7 0 -10 -3 -7 -7z" />
    <path d="M8558 8323 c7 -3 16 -2 19 1 4 3 -2 6 -13 5 l-19 -1 13 -5z" />
    <path d="M4753 8313 c4 -3 10 -3 14 0 3 4 0 7 -7 7 -7 0 -10 -3 -7 -7z" />
    <path d="M8738 8303 c7 -3 16 -2 19 1 4 3 -2 6 -13 5 l-19 -1 13 -5z" />
    <path d="M4573 8293 c4 -3 10 -3 14 0 3 4 0 7 -7 7 -7 0 -10 -3 -7 -7z" />
    <path d="M8853 8293 c4 -3 10 -3 14 0 3 4 0 7 -7 7 -7 0 -10 -3 -7 -7z" />
    <path d="M4513 8283 c4 -3 10 -3 14 0 3 4 0 7 -7 7 -7 0 -10 -3 -7 -7z" />
    <path d="M4223 8253 c4 -3 10 -3 14 0 3 4 0 7 -7 7 -7 0 -10 -3 -7 -7z" />
    <path d="M9213 8253 c4 -3 10 -3 14 0 3 4 0 7 -7 7 -7 0 -10 -3 -7 -7z" />
    <path d="M4103 8243 c4 -3 10 -3 14 0 3 4 0 7 -7 7 -7 0 -10 -3 -7 -7z" />
    <path d="M4043 8233 c4 -3 10 -3 14 0 3 4 0 7 -7 7 -7 0 -10 -3 -7 -7z" />
    <path d="M3923 8223 c4 -3 10 -3 14 0 3 4 0 7 -7 7 -7 0 -10 -3 -7 -7z" />
    <path d="M9493 8223 c9 -2 23 -2 30 0 6 3 -1 5 -18 5 l-30 0 18 -5z" />
    <path d="M3863 8213 c4 -3 10 -3 14 0 3 4 0 7 -7 7 -7 0 -10 -3 -7 -7z" />
    <path d="M9563 8213 c4 -3 10 -3 14 0 3 4 0 7 -7 7 -7 0 -10 -3 -7 -7z" />
    <path d="M9683 8203 c4 -3 10 -3 14 0 3 4 0 7 -7 7 -7 0 -10 -3 -7 -7z" />
    <path d="M3568 8183 c7 -3 16 -2 19 1 4 3 -2 6 -13 5 l-19 -1 13 -5z" />
    <path d="M9863 8183 c4 -3 10 -3 14 0 3 4 0 7 -7 7 -7 0 -10 -3 -7 -7z" />
    <path d="M9923 8173 c4 -3 10 -3 14 0 3 4 0 7 -7 7 -7 0 -10 -3 -7 -7z" />
    <path d="M3393 8163 c4 -3 10 -3 14 0 3 4 0 7 -7 7 -7 0 -10 -3 -7 -7z" />
    <path d="M3328 8153 c7 -3 16 -2 19 1 4 3 -2 6 -13 5 l-19 -1 13 -5z" />
    <path d="M3213 8143 c4 -3 10 -3 14 0 3 4 0 7 -7 7 -7 0 -10 -3 -7 -7z" />
    <path d="M10218 8143 c7 -3 16 -2 19 1 4 3 -2 6 -13 5 l-19 -1 13 -5z" />
    <path d="M10333 8133 c4 -3 10 -3 14 0 3 4 0 7 -7 7 -7 0 -10 -3 -7 -7z" />
    <path d="M10393 8123 c4 -3 10 -3 14 0 3 4 0 7 -7 7 -7 0 -10 -3 -7 -7z" />
    <path d="M2913 8113 c4 -3 10 -3 14 0 3 4 0 7 -7 7 -7 0 -10 -3 -7 -7z" />
    <path d="M2943 8113 c4 -3 10 -3 14 0 3 4 0 7 -7 7 -7 0 -10 -3 -7 -7z" />
    <path d="M10513 8113 c4 -3 10 -3 14 0 3 4 0 7 -7 7 -7 0 -10 -3 -7 -7z" />
    <path d="M2858 8103 c7 -3 16 -2 19 1 4 3 -2 6 -13 5 l-19 -1 13 -5z" />
    <path d="M10573 8103 c4 -3 10 -3 14 0 3 4 0 7 -7 7 -7 0 -10 -3 -7 -7z" />
    <path d="M2678 8083 c7 -3 16 -2 19 1 4 3 -2 6 -13 5 l-19 -1 13 -5z" />
    <path d="M2563 8073 c4 -3 10 -3 14 0 3 4 0 7 -7 7 -7 0 -10 -3 -7 -7z" />
    <path d="M10868 8073 c7 -3 16 -2 19 1 4 3 -2 6 -13 5 l-19 -1 13 -5z" />
    <path d="M2503 8063 c4 -3 10 -3 14 0 3 4 0 7 -7 7 -7 0 -10 -3 -7 -7z" />
    <path d="M11043 8053 c4 -3 10 -3 14 0 3 4 0 7 -7 7 -7 0 -10 -3 -7 -7z" />
    <path d="M2293 8043 c4 -3 10 -3 14 0 3 4 0 7 -7 7 -7 0 -10 -3 -7 -7z" />
    <path d="M2203 8033 c4 -3 10 -3 14 0 3 4 0 7 -7 7 -7 0 -10 -3 -7 -7z" />
    <path d="M11223 8033 c4 -3 10 -3 14 0 3 4 0 7 -7 7 -7 0 -10 -3 -7 -7z" />
    <path d="M1918 8003 c6 -2 18 -2 25 0 6 3 1 5 -13 5 -14 0 -19 -2 -12 -5z" />
    <path d="M11493 8003 c4 -3 10 -3 14 0 3 4 0 7 -7 7 -7 0 -10 -3 -7 -7z" />
    <path d="M11523 8003 c4 -3 10 -3 14 0 3 4 0 7 -7 7 -7 0 -10 -3 -7 -7z" />
    <path d="M1853 7993 c4 -3 10 -3 14 0 3 4 0 7 -7 7 -7 0 -10 -3 -7 -7z" />
    <path d="M11578 7993 c7 -3 16 -2 19 1 4 3 -2 6 -13 5 l-19 -1 13 -5z" />
    <path d="M1733 7983 c4 -3 10 -3 14 0 3 4 0 7 -7 7 -7 0 -10 -3 -7 -7z" />
    <path d="M11758 7973 c7 -3 16 -2 19 1 4 3 -2 6 -13 5 l-19 -1 13 -5z" />
    <path d="M1553 7963 c4 -3 10 -3 14 0 3 4 0 7 -7 7 -7 0 -10 -3 -7 -7z" />
    <path d="M11873 7963 c4 -3 10 -3 14 0 3 4 0 7 -7 7 -7 0 -10 -3 -7 -7z" />
    <path d="M1433 7953 c4 -3 10 -3 14 0 3 4 0 7 -7 7 -7 0 -10 -3 -7 -7z" />
    <path d="M11993 7953 c4 -3 10 -3 14 0 3 4 0 7 -7 7 -7 0 -10 -3 -7 -7z" />
    <path d="M1258 7933 c7 -3 16 -2 19 1 4 3 -2 6 -13 5 l-19 -1 13 -5z" />
    <path d="M12143 7933 c4 -3 10 -3 14 0 3 4 0 7 -7 7 -7 0 -10 -3 -7 -7z" />
    <path d="M12173 7933 c4 -3 10 -3 14 0 3 4 0 7 -7 7 -7 0 -10 -3 -7 -7z" />
    <path d="M1203 7923 c4 -3 10 -3 14 0 3 4 0 7 -7 7 -7 0 -10 -3 -7 -7z" />
    <path d="M12233 7923 c4 -3 10 -3 14 0 3 4 0 7 -7 7 -7 0 -10 -3 -7 -7z" />
    <path d="M12194 7808 l-7 -11 11 7 c7 4 12 9 12 12 0 8 -9 4 -16 -8z" />
    <path d="M12004 7638 l-7 -11 11 7 c12 7 16 16 8 16 -3 0 -8 -5 -12 -12z" />
    <path d="M11624 7298 l-7 -11 11 7 c7 4 12 9 12 12 0 8 -9 4 -16 -8z" />
    <path d="M2055 7080 c3 -5 8 -10 11 -10 3 0 2 5 -1 10 -3 6 -8 10 -11 10 -3 0
-2 -4 1 -10z" />
    <path d="M11254 6968 l-7 -11 11 7 c12 7 16 16 8 16 -3 0 -8 -5 -12 -12z" />
    <path d="M2245 6910 c3 -5 8 -10 11 -10 3 0 2 5 -1 10 -3 6 -8 10 -11 10 -3 0
-2 -4 1 -10z" />
    <path d="M11124 6848 l-7 -11 11 7 c12 7 16 16 8 16 -3 0 -8 -5 -12 -12z" />
    <path d="M2435 6740 c3 -5 8 -10 11 -10 3 0 2 5 -1 10 -3 6 -8 10 -11 10 -3 0
-2 -4 1 -10z" />
    <path d="M10874 6628 l-7 -11 11 7 c7 4 12 9 12 12 0 8 -9 4 -16 -8z" />
    <path d="M10684 6458 l-7 -11 11 7 c7 4 12 9 12 12 0 8 -9 4 -16 -8z" />
    <path d="M2935 6290 c3 -5 8 -10 11 -10 3 0 2 5 -1 10 -3 6 -8 10 -11 10 -3 0
-2 -4 1 -10z" />
    <path d="M10464 6258 l-7 -11 11 7 c7 4 12 9 12 12 0 8 -9 4 -16 -8z" />
    <path d="M3125 6120 c3 -5 8 -10 11 -10 3 0 2 5 -1 10 -3 6 -8 10 -11 10 -3 0
-2 -4 1 -10z" />
    <path d="M3185 6070 c3 -5 8 -10 11 -10 3 0 2 5 -1 10 -3 6 -8 10 -11 10 -3 0
-2 -4 1 -10z" />
    <path d="M10184 6008 l-7 -11 11 7 c7 4 12 9 12 12 0 8 -9 4 -16 -8z" />
    <path d="M3315 5950 c3 -5 8 -10 11 -10 3 0 2 5 -1 10 -3 6 -8 10 -11 10 -3 0
-2 -4 1 -10z" />
    <path d="M9994 5838 l-7 -11 11 7 c12 7 16 16 8 16 -3 0 -8 -5 -12 -12z" />
    <path d="M9804 5668 l-7 -11 11 7 c12 7 16 16 8 16 -3 0 -8 -5 -12 -12z" />
    <path d="M9350 5190 c0 -7 3 -10 7 -7 3 4 3 10 0 14 -4 3 -7 0 -7 -7z" />
    <path d="M9407 4929 l7 -23 4 13 c2 7 -1 18 -6 23 l-11 11 6 -24z" />
    <path d="M4011 4834 l1 -19 5 13 c3 7 2 16 -1 19 -3 4 -6 -2 -5 -13z" />
    <path d="M3991 4744 l1 -19 5 13 c3 7 2 16 -1 19 -3 4 -6 -2 -5 -13z" />
    <path d="M3970 4660 c0 -7 3 -10 7 -7 3 4 3 10 0 14 -4 3 -7 0 -7 -7z" />
    <path d="M9477 4599 l7 -23 4 13 c2 7 -1 18 -6 23 l-11 11 6 -24z" />
    <path d="M3950 4570 c0 -7 3 -10 7 -7 3 4 3 10 0 14 -4 3 -7 0 -7 -7z" />
    <path d="M9497 4509 l7 -23 4 13 c2 7 -1 18 -6 23 l-11 11 6 -24z" />
    <path d="M9517 4419 l7 -23 4 13 c2 7 -1 18 -6 23 l-11 11 6 -24z" />
    <path d="M3900 4330 c0 -7 3 -10 7 -7 3 4 3 10 0 14 -4 3 -7 0 -7 -7z" />
    <path d="M9551 4264 l1 -19 5 13 c3 7 2 16 -1 19 -3 4 -6 -2 -5 -13z" />
    <path d="M3880 4240 c0 -7 3 -10 7 -7 3 4 3 10 0 14 -4 3 -7 0 -7 -7z" />
    <path d="M9620 3940 c0 -7 3 -10 7 -7 3 4 3 10 0 14 -4 3 -7 0 -7 -7z" />
    <path d="M3810 3910 c0 -7 3 -10 7 -7 3 4 3 10 0 14 -4 3 -7 0 -7 -7z" />
    <path d="M9700 3580 c0 -7 3 -10 7 -7 3 4 3 10 0 14 -4 3 -7 0 -7 -7z" />
    <path d="M3670 3280 c0 -7 3 -10 7 -7 3 4 3 10 0 14 -4 3 -7 0 -7 -7z" />
    <path d="M9760 3280 c0 -7 3 -10 7 -7 3 4 3 10 0 14 -4 3 -7 0 -7 -7z" />
    <path d="M6913 3233 c4 -3 10 -3 14 0 3 4 0 7 -7 7 -7 0 -10 -3 -7 -7z" />
    <path d="M6940 3216 c0 -2 7 -7 16 -10 l15 -6 -6 10 c-6 10 -25 14 -25 6z" />
    <path d="M6985 3190 c3 -5 8 -10 11 -10 3 0 2 5 -1 10 -3 6 -8 10 -11 10 -3 0
-2 -4 1 -10z" />
    <path d="M7033 3163 c4 -3 10 -3 14 0 3 4 0 7 -7 7 -7 0 -10 -3 -7 -7z" />
    <path d="M6164 3028 l-7 -11 11 7 c7 4 12 9 12 12 0 8 -9 4 -16 -8z" />
    <path d="M7305 3010 c3 -5 8 -10 11 -10 3 0 2 5 -1 10 -3 6 -8 10 -11 10 -3 0
-2 -4 1 -10z" />
    <path d="M6123 3003 c4 -3 10 -3 14 0 3 4 0 7 -7 7 -7 0 -10 -3 -7 -7z" />
    <path d="M6074 2978 l-7 -11 11 7 c7 4 12 9 12 12 0 8 -9 4 -16 -8z" />
    <path d="M3603 2965 c-3 -9 -3 -18 -1 -21 3 -3 8 4 11 16 6 23 -1 27 -10 5z" />
    <path d="M7380 2966 c0 -2 7 -7 16 -10 l15 -6 -6 10 c-6 10 -25 14 -25 6z" />
    <path d="M9831 2954 l1 -19 5 13 c3 7 2 16 -1 19 -3 4 -6 -2 -5 -13z" />
    <path d="M6003 2933 c4 -3 10 -3 14 0 3 4 0 7 -7 7 -7 0 -10 -3 -7 -7z" />
    <path d="M3583 2875 c-3 -9 -3 -18 -1 -21 3 -3 8 4 11 16 6 23 -1 27 -10 5z" />
    <path d="M9851 2864 l1 -19 5 13 c3 7 2 16 -1 19 -3 4 -6 -2 -5 -13z" />
    <path d="M7615 2830 c3 -5 8 -10 11 -10 3 0 2 5 -1 10 -3 6 -8 10 -11 10 -3 0
-2 -4 1 -10z" />
    <path d="M3563 2785 c-3 -9 -3 -18 -1 -21 3 -3 8 4 11 16 6 23 -1 27 -10 5z" />
    <path d="M5724 2778 l-7 -11 11 7 c7 4 12 9 12 12 0 8 -9 4 -16 -8z" />
    <path d="M9871 2774 l1 -19 5 13 c3 7 2 16 -1 19 -3 4 -6 -2 -5 -13z" />
    <path d="M7743 2753 c4 -3 10 -3 14 0 3 4 0 7 -7 7 -7 0 -10 -3 -7 -7z" />
    <path d="M3545 2699 c-4 -6 -5 -12 -2 -15 2 -3 7 2 10 11 7 17 1 20 -8 4z" />
    <path d="M9890 2690 c0 -7 3 -10 7 -7 3 4 3 10 0 14 -4 3 -7 0 -7 -7z" />
    <path d="M5563 2683 c4 -3 10 -3 14 0 3 4 0 7 -7 7 -7 0 -10 -3 -7 -7z" />
    <path d="M3531 2633 c-1 -6 -4 -20 -7 -30 l-6 -18 12 18 c6 10 9 23 6 30 l-4
12 -1 -12z" />
    <path d="M5473 2633 c4 -3 10 -3 14 0 3 4 0 7 -7 7 -7 0 -10 -3 -7 -7z" />
    <path d="M9910 2600 c0 -7 3 -10 7 -7 3 4 3 10 0 14 -4 3 -7 0 -7 -7z" />
    <path d="M5383 2583 c4 -3 10 -3 14 0 3 4 0 7 -7 7 -7 0 -10 -3 -7 -7z" />
    <path d="M8055 2580 c3 -5 8 -10 11 -10 3 0 2 5 -1 10 -3 6 -8 10 -11 10 -3 0
-2 -4 1 -10z" />
    <path d="M5344 2558 l-7 -11 11 7 c7 4 12 9 12 12 0 8 -9 4 -16 -8z" />
    <path d="M8093 2553 c4 -3 10 -3 14 0 3 4 0 7 -7 7 -7 0 -10 -3 -7 -7z" />
    <path d="M3511 2534 l1 -19 5 13 c3 7 2 16 -1 19 -3 4 -6 -2 -5 -13z" />
    <path d="M8183 2503 c4 -3 10 -3 14 0 3 4 0 7 -7 7 -7 0 -10 -3 -7 -7z" />
    <path d="M3493 2455 c-3 -9 -3 -18 -1 -21 3 -3 8 4 11 16 6 23 -1 27 -10 5z" />
    <path d="M9940 2446 c0 -8 4 -17 9 -20 l9 -6 -5 20 c-6 23 -13 26 -13 6z" />
    <path d="M5123 2433 c4 -3 10 -3 14 0 3 4 0 7 -7 7 -7 0 -10 -3 -7 -7z" />
    <path d="M5033 2383 c4 -3 10 -3 14 0 3 4 0 7 -7 7 -7 0 -10 -3 -7 -7z" />
    <path d="M3475 2369 c-4 -6 -5 -12 -2 -15 2 -3 7 2 10 11 7 17 1 20 -8 4z" />
    <path d="M9960 2360 c0 -7 3 -10 7 -7 3 4 3 10 0 14 -4 3 -7 0 -7 -7z" />
    <path d="M4943 2333 c4 -3 10 -3 14 0 3 4 0 7 -7 7 -7 0 -10 -3 -7 -7z" />
    <path d="M8495 2330 c3 -5 8 -10 11 -10 3 0 2 5 -1 10 -3 6 -8 10 -11 10 -3 0
-2 -4 1 -10z" />
    <path d="M4904 2308 l-7 -11 11 7 c7 4 12 9 12 12 0 8 -9 4 -16 -8z" />
    <path d="M3461 2303 c-1 -6 -4 -20 -7 -30 l-6 -18 12 18 c6 10 9 23 6 30 l-4
12 -1 -12z" />
    <path d="M9980 2270 c0 -7 3 -10 7 -7 3 4 3 10 0 14 -4 3 -7 0 -7 -7z" />
    <path d="M3434 2188 l-7 -11 11 7 c7 4 12 9 12 12 0 8 -9 4 -16 -8z" />
    <path d="M8740 2186 c0 -2 7 -7 16 -10 l15 -6 -6 10 c-6 10 -25 14 -25 6z" />
    <path d="M8833 2133 c4 -3 10 -3 14 0 3 4 0 7 -7 7 -7 0 -10 -3 -7 -7z" />
    <path d="M4364 1998 l-7 -11 11 7 c7 4 12 9 12 12 0 8 -9 4 -16 -8z" />
    <path d="M9105 1980 c3 -5 8 -10 11 -10 3 0 2 5 -1 10 -3 6 -8 10 -11 10 -3 0
-2 -4 1 -10z" />
    <path d="M3390 1970 c0 -7 3 -10 7 -7 3 4 3 10 0 14 -4 3 -7 0 -7 -7z" />
    <path d="M4323 1973 c4 -3 10 -3 14 0 3 4 0 7 -7 7 -7 0 -10 -3 -7 -7z" />
    <path d="M4274 1948 l-7 -11 11 7 c12 7 16 16 8 16 -3 0 -8 -5 -12 -12z" />
    <path d="M3380 1940 c0 -7 3 -10 7 -7 3 4 3 10 0 14 -4 3 -7 0 -7 -7z" />
    <path d="M10050 1940 c0 -7 3 -10 7 -7 3 4 3 10 0 14 -4 3 -7 0 -7 -7z" />
    <path d="M9180 1936 c0 -2 7 -7 16 -10 l15 -6 -6 10 c-6 10 -25 14 -25 6z" />
    <path d="M4203 1903 c4 -3 10 -3 14 0 3 4 0 7 -7 7 -7 0 -10 -3 -7 -7z" />
    <path d="M9415 1800 c3 -5 8 -10 11 -10 3 0 2 5 -1 10 -3 6 -8 10 -11 10 -3 0
-2 -4 1 -10z" />
    <path d="M3924 1748 l-7 -11 11 7 c12 7 16 16 8 16 -3 0 -8 -5 -12 -12z" />
    <path d="M9543 1723 c4 -3 10 -3 14 0 3 4 0 7 -7 7 -7 0 -10 -3 -7 -7z" />
    <path d="M3853 1703 c4 -3 10 -3 14 0 3 4 0 7 -7 7 -7 0 -10 -3 -7 -7z" />
    <path d="M3763 1653 c4 -3 10 -3 14 0 3 4 0 7 -7 7 -7 0 -10 -3 -7 -7z" />
    <path d="M3310 1610 c0 -7 3 -10 7 -7 3 4 3 10 0 14 -4 3 -7 0 -7 -7z" />
    <path d="M3673 1603 c4 -3 10 -3 14 0 3 4 0 7 -7 7 -7 0 -10 -3 -7 -7z" />
    <path d="M3583 1553 c4 -3 10 -3 14 0 3 4 0 7 -7 7 -7 0 -10 -3 -7 -7z" />
    <path d="M9855 1550 c3 -5 8 -10 11 -10 3 0 2 5 -1 10 -3 6 -8 10 -11 10 -3 0
-2 -4 1 -10z" />
    <path d="M9893 1523 c4 -3 10 -3 14 0 3 4 0 7 -7 7 -7 0 -10 -3 -7 -7z" />
    <path d="M9983 1473 c4 -3 10 -3 14 0 3 4 0 7 -7 7 -7 0 -10 -3 -7 -7z" />
    <path d="M3323 1403 c4 -3 10 -3 14 0 3 4 0 7 -7 7 -7 0 -10 -3 -7 -7z" />
    <path d="M3260 1370 c0 -7 3 -10 7 -7 3 4 3 10 0 14 -4 3 -7 0 -7 -7z" />
  </g>
  <g transform="translate(0.000000,1341.000000) scale(0.100000,-0.100000)" fill="#d08500" stroke="none">
    <path d="M5084 8368 l-7 -11 11 7 c12 7 16 16 8 16 -3 0 -8 -5 -12 -12z" />
    <path d="M4943 8333 c4 -3 10 -3 14 0 3 4 0 7 -7 7 -7 0 -10 -3 -7 -7z" />
    <path d="M8488 8333 c7 -3 16 -2 19 1 4 3 -2 6 -13 5 l-19 -1 13 -5z" />
    <path d="M4883 8323 c4 -3 10 -3 14 0 3 4 0 7 -7 7 -7 0 -10 -3 -7 -7z" />
    <path d="M8543 8323 c4 -3 10 -3 14 0 3 4 0 7 -7 7 -7 0 -10 -3 -7 -7z" />
    <path d="M8663 8313 c4 -3 10 -3 14 0 3 4 0 7 -7 7 -7 0 -10 -3 -7 -7z" />
    <path d="M8723 8303 c4 -3 10 -3 14 0 3 4 0 7 -7 7 -7 0 -10 -3 -7 -7z" />
    <path d="M4588 8293 c7 -3 16 -2 19 1 4 3 -2 6 -13 5 l-19 -1 13 -5z" />
    <path d="M8843 8293 c4 -3 10 -3 14 0 3 4 0 7 -7 7 -7 0 -10 -3 -7 -7z" />
    <path d="M4528 8283 c7 -3 16 -2 19 1 4 3 -2 6 -13 5 l-19 -1 13 -5z" />
    <path d="M8908 8283 c7 -3 16 -2 19 1 4 3 -2 6 -13 5 l-19 -1 13 -5z" />
    <path d="M4413 8273 c4 -3 10 -3 14 0 3 4 0 7 -7 7 -7 0 -10 -3 -7 -7z" />
    <path d="M4353 8263 c4 -3 10 -3 14 0 3 4 0 7 -7 7 -7 0 -10 -3 -7 -7z" />
    <path d="M4233 8253 c4 -3 10 -3 14 0 3 4 0 7 -7 7 -7 0 -10 -3 -7 -7z" />
    <path d="M9198 8253 c7 -3 16 -2 19 1 4 3 -2 6 -13 5 l-19 -1 13 -5z" />
    <path d="M4113 8243 c4 -3 10 -3 14 0 3 4 0 7 -7 7 -7 0 -10 -3 -7 -7z" />
    <path d="M9313 8243 c4 -3 10 -3 14 0 3 4 0 7 -7 7 -7 0 -10 -3 -7 -7z" />
    <path d="M9373 8233 c4 -3 10 -3 14 0 3 4 0 7 -7 7 -7 0 -10 -3 -7 -7z" />
    <path d="M3933 8223 c4 -3 10 -3 14 0 3 4 0 7 -7 7 -7 0 -10 -3 -7 -7z" />
    <path d="M9493 8223 c4 -3 10 -3 14 0 3 4 0 7 -7 7 -7 0 -10 -3 -7 -7z" />
    <path d="M3878 8213 c7 -3 16 -2 19 1 4 3 -2 6 -13 5 l-19 -1 13 -5z" />
    <path d="M9553 8213 c4 -3 10 -3 14 0 3 4 0 7 -7 7 -7 0 -10 -3 -7 -7z" />
    <path d="M3703 8193 c4 -3 10 -3 14 0 3 4 0 7 -7 7 -7 0 -10 -3 -7 -7z" />
    <path d="M3583 8183 c4 -3 10 -3 14 0 3 4 0 7 -7 7 -7 0 -10 -3 -7 -7z" />
    <path d="M9848 8183 c7 -3 16 -2 19 1 4 3 -2 6 -13 5 l-19 -1 13 -5z" />
    <path d="M3518 8173 c7 -3 16 -2 19 1 4 3 -2 6 -13 5 l-19 -1 13 -5z" />
    <path d="M9908 8173 c7 -3 16 -2 19 1 4 3 -2 6 -13 5 l-19 -1 13 -5z" />
    <path d="M10083 8153 c4 -3 10 -3 14 0 3 4 0 7 -7 7 -7 0 -10 -3 -7 -7z" />
    <path d="M3223 8143 c4 -3 10 -3 14 0 3 4 0 7 -7 7 -7 0 -10 -3 -7 -7z" />
    <path d="M10203 8143 c4 -3 10 -3 14 0 3 4 0 7 -7 7 -7 0 -10 -3 -7 -7z" />
    <path d="M3113 8133 c4 -3 10 -3 14 0 3 4 0 7 -7 7 -7 0 -10 -3 -7 -7z" />
    <path d="M10323 8133 c4 -3 10 -3 14 0 3 4 0 7 -7 7 -7 0 -10 -3 -7 -7z" />
    <path d="M2928 8113 c7 -3 16 -2 19 1 4 3 -2 6 -13 5 l-19 -1 13 -5z" />
    <path d="M10503 8113 c4 -3 10 -3 14 0 3 4 0 7 -7 7 -7 0 -10 -3 -7 -7z" />
    <path d="M2873 8103 c4 -3 10 -3 14 0 3 4 0 7 -7 7 -7 0 -10 -3 -7 -7z" />
    <path d="M10558 8103 c7 -3 16 -2 19 1 4 3 -2 6 -13 5 l-19 -1 13 -5z" />
    <path d="M2753 8093 c4 -3 10 -3 14 0 3 4 0 7 -7 7 -7 0 -10 -3 -7 -7z" />
    <path d="M10733 8083 c4 -3 10 -3 14 0 3 4 0 7 -7 7 -7 0 -10 -3 -7 -7z" />
    <path d="M2573 8073 c4 -3 10 -3 14 0 3 4 0 7 -7 7 -7 0 -10 -3 -7 -7z" />
    <path d="M10853 8073 c4 -3 10 -3 14 0 3 4 0 7 -7 7 -7 0 -10 -3 -7 -7z" />
    <path d="M2513 8063 c4 -3 10 -3 14 0 3 4 0 7 -7 7 -7 0 -10 -3 -7 -7z" />
    <path d="M10918 8063 c7 -3 16 -2 19 1 4 3 -2 6 -13 5 l-19 -1 13 -5z" />
    <path d="M11033 8053 c4 -3 10 -3 14 0 3 4 0 7 -7 7 -7 0 -10 -3 -7 -7z" />
    <path d="M2283 8043 c4 -3 10 -3 14 0 3 4 0 7 -7 7 -7 0 -10 -3 -7 -7z" />
    <path d="M2218 8033 c7 -3 16 -2 19 1 4 3 -2 6 -13 5 l-19 -1 13 -5z" />
    <path d="M11213 8033 c4 -3 10 -3 14 0 3 4 0 7 -7 7 -7 0 -10 -3 -7 -7z" />
    <path d="M2103 8023 c4 -3 10 -3 14 0 3 4 0 7 -7 7 -7 0 -10 -3 -7 -7z" />
    <path d="M11323 8023 c4 -3 10 -3 14 0 3 4 0 7 -7 7 -7 0 -10 -3 -7 -7z" />
    <path d="M2043 8013 c4 -3 10 -3 14 0 3 4 0 7 -7 7 -7 0 -10 -3 -7 -7z" />
    <path d="M1923 8003 c4 -3 10 -3 14 0 3 4 0 7 -7 7 -7 0 -10 -3 -7 -7z" />
    <path d="M11508 8003 c7 -3 16 -2 19 1 4 3 -2 6 -13 5 l-19 -1 13 -5z" />
    <path d="M1863 7993 c4 -3 10 -3 14 0 3 4 0 7 -7 7 -7 0 -10 -3 -7 -7z" />
    <path d="M11563 7993 c4 -3 10 -3 14 0 3 4 0 7 -7 7 -7 0 -10 -3 -7 -7z" />
    <path d="M11683 7983 c4 -3 10 -3 14 0 3 4 0 7 -7 7 -7 0 -10 -3 -7 -7z" />
    <path d="M1568 7963 c7 -3 16 -2 19 1 4 3 -2 6 -13 5 l-19 -1 13 -5z" />
    <path d="M11863 7963 c4 -3 10 -3 14 0 3 4 0 7 -7 7 -7 0 -10 -3 -7 -7z" />
    <path d="M1448 7953 c7 -3 16 -2 19 1 4 3 -2 6 -13 5 l-19 -1 13 -5z" />
    <path d="M11978 7953 c7 -3 16 -2 19 1 4 3 -2 6 -13 5 l-19 -1 13 -5z" />
    <path d="M1393 7943 c4 -3 10 -3 14 0 3 4 0 7 -7 7 -7 0 -10 -3 -7 -7z" />
    <path d="M12158 7933 c7 -3 16 -2 19 1 4 3 -2 6 -13 5 l-19 -1 13 -5z" />
    <path d="M1213 7923 c4 -3 10 -3 14 0 3 4 0 7 -7 7 -7 0 -10 -3 -7 -7z" />
    <path d="M12218 7923 c7 -3 16 -2 19 1 4 3 -2 6 -13 5 l-19 -1 13 -5z" />
    <path d="M1315 7740 c3 -5 8 -10 11 -10 3 0 2 5 -1 10 -3 6 -8 10 -11 10 -3 0
-2 -4 1 -10z" />
    <path d="M1395 7670 c3 -5 8 -10 11 -10 3 0 2 5 -1 10 -3 6 -8 10 -11 10 -3 0
-2 -4 1 -10z" />
    <path d="M11614 7288 l-7 -11 11 7 c7 4 12 9 12 12 0 8 -9 4 -16 -8z" />
    <path d="M11534 7218 l-7 -11 11 7 c12 7 16 16 8 16 -3 0 -8 -5 -12 -12z" />
    <path d="M2005 7120 c3 -5 8 -10 11 -10 3 0 2 5 -1 10 -3 6 -8 10 -11 10 -3 0
-2 -4 1 -10z" />
    <path d="M3155 6090 c3 -5 8 -10 11 -10 3 0 2 5 -1 10 -3 6 -8 10 -11 10 -3 0
-2 -4 1 -10z" />
    <path d="M9774 5638 l-7 -11 11 7 c7 4 12 9 12 12 0 8 -9 4 -16 -8z" />
    <path d="M9414 5318 l-7 -11 11 7 c7 4 12 9 12 12 0 8 -9 4 -16 -8z" />
    <path d="M4070 5130 c0 -7 3 -10 7 -7 3 4 3 10 0 14 -4 3 -7 0 -7 -7z" />
    <path d="M9360 5130 c0 -7 3 -10 7 -7 3 4 3 10 0 14 -4 3 -7 0 -7 -7z" />
    <path d="M4050 5040 c0 -7 3 -10 7 -7 3 4 3 10 0 14 -4 3 -7 0 -7 -7z" />
    <path d="M9380 5040 c0 -7 3 -10 7 -7 3 4 3 10 0 14 -4 3 -7 0 -7 -7z" />
    <path d="M9390 5010 c0 -7 3 -10 7 -7 3 4 3 10 0 14 -4 3 -7 0 -7 -7z" />
    <path d="M4030 4950 c0 -7 3 -10 7 -7 3 4 3 10 0 14 -4 3 -7 0 -7 -7z" />
    <path d="M9400 4950 c0 -7 3 -10 7 -7 3 4 3 10 0 14 -4 3 -7 0 -7 -7z" />
    <path d="M4020 4890 c0 -7 3 -10 7 -7 3 4 3 10 0 14 -4 3 -7 0 -7 -7z" />
    <path d="M9420 4860 c0 -7 3 -10 7 -7 3 4 3 10 0 14 -4 3 -7 0 -7 -7z" />
    <path d="M9440 4770 c0 -7 3 -10 7 -7 3 4 3 10 0 14 -4 3 -7 0 -7 -7z" />
    <path d="M9460 4680 c0 -7 3 -10 7 -7 3 4 3 10 0 14 -4 3 -7 0 -7 -7z" />
    <path d="M3920 4440 c0 -7 3 -10 7 -7 3 4 3 10 0 14 -4 3 -7 0 -7 -7z" />
    <path d="M9510 4440 c0 -7 3 -10 7 -7 3 4 3 10 0 14 -4 3 -7 0 -7 -7z" />
    <path d="M9530 4350 c0 -7 3 -10 7 -7 3 4 3 10 0 14 -4 3 -7 0 -7 -7z" />
    <path d="M3760 3700 c0 -7 3 -10 7 -7 3 4 3 10 0 14 -4 3 -7 0 -7 -7z" />
    <path d="M9670 3700 c0 -7 3 -10 7 -7 3 4 3 10 0 14 -4 3 -7 0 -7 -7z" />
    <path d="M3740 3610 c0 -7 3 -10 7 -7 3 4 3 10 0 14 -4 3 -7 0 -7 -7z" />
    <path d="M9690 3610 c0 -7 3 -10 7 -7 3 4 3 10 0 14 -4 3 -7 0 -7 -7z" />
    <path d="M3690 3370 c0 -7 3 -10 7 -7 3 4 3 10 0 14 -4 3 -7 0 -7 -7z" />
    <path d="M9740 3370 c0 -7 3 -10 7 -7 3 4 3 10 0 14 -4 3 -7 0 -7 -7z" />
    <path d="M6795 3300 c3 -5 8 -10 11 -10 3 0 2 5 -1 10 -3 6 -8 10 -11 10 -3 0
-2 -4 1 -10z" />
    <path d="M6885 3250 c3 -5 8 -10 11 -10 3 0 2 5 -1 10 -3 6 -8 10 -11 10 -3 0
-2 -4 1 -10z" />
    <path d="M6444 3188 l-7 -11 11 7 c12 7 16 16 8 16 -3 0 -8 -5 -12 -12z" />
    <path d="M3620 3040 c0 -7 3 -10 7 -7 3 4 3 10 0 14 -4 3 -7 0 -7 -7z" />
    <path d="M7425 2940 c3 -5 8 -10 11 -10 3 0 2 5 -1 10 -3 6 -8 10 -11 10 -3 0
-2 -4 1 -10z" />
    <path d="M3570 2800 c0 -7 3 -10 7 -7 3 4 3 10 0 14 -4 3 -7 0 -7 -7z" />
    <path d="M7775 2740 c3 -5 8 -10 11 -10 3 0 2 5 -1 10 -3 6 -8 10 -11 10 -3 0
-2 -4 1 -10z" />
    <path d="M5624 2718 l-7 -11 11 7 c7 4 12 9 12 12 0 8 -9 4 -16 -8z" />
    <path d="M3550 2710 c0 -7 3 -10 7 -7 3 4 3 10 0 14 -4 3 -7 0 -7 -7z" />
    <path d="M7865 2690 c3 -5 8 -10 11 -10 3 0 2 5 -1 10 -3 6 -8 10 -11 10 -3 0
-2 -4 1 -10z" />
    <path d="M5414 2598 l-7 -11 11 7 c7 4 12 9 12 12 0 8 -9 4 -16 -8z" />
    <path d="M8215 2490 c3 -5 8 -10 11 -10 3 0 2 5 -1 10 -3 6 -8 10 -11 10 -3 0
-2 -4 1 -10z" />
    <path d="M3500 2470 c0 -7 3 -10 7 -7 3 4 3 10 0 14 -4 3 -7 0 -7 -7z" />
    <path d="M8245 2470 c3 -5 8 -10 11 -10 3 0 2 5 -1 10 -3 6 -8 10 -11 10 -3 0
-2 -4 1 -10z" />
    <path d="M8335 2420 c3 -5 8 -10 11 -10 3 0 2 5 -1 10 -3 6 -8 10 -11 10 -3 0
-2 -4 1 -10z" />
    <path d="M3480 2380 c0 -7 3 -10 7 -7 3 4 3 10 0 14 -4 3 -7 0 -7 -7z" />
    <path d="M8595 2270 c3 -5 8 -10 11 -10 3 0 2 5 -1 10 -3 6 -8 10 -11 10 -3 0
-2 -4 1 -10z" />
    <path d="M8685 2220 c3 -5 8 -10 11 -10 3 0 2 5 -1 10 -3 6 -8 10 -11 10 -3 0
-2 -4 1 -10z" />
    <path d="M10100 1730 c0 -7 3 -10 7 -7 3 4 3 10 0 14 -4 3 -7 0 -7 -7z" />
    <path d="M9575 1710 c3 -5 8 -10 11 -10 3 0 2 5 -1 10 -3 6 -8 10 -11 10 -3 0
-2 -4 1 -10z" />
    <path d="M3824 1688 l-7 -11 11 7 c12 7 16 16 8 16 -3 0 -8 -5 -12 -12z" />
    <path d="M10120 1640 c0 -7 3 -10 7 -7 3 4 3 10 0 14 -4 3 -7 0 -7 -7z" />
    <path d="M9765 1600 c3 -5 8 -10 11 -10 3 0 2 5 -1 10 -3 6 -8 10 -11 10 -3 0
-2 -4 1 -10z" />
    <path d="M3614 1568 l-7 -11 11 7 c7 4 12 9 12 12 0 8 -9 4 -16 -8z" />
    <path d="M9925 1510 c3 -5 8 -10 11 -10 3 0 2 5 -1 10 -3 6 -8 10 -11 10 -3 0
-2 -4 1 -10z" />
    <path d="M10015 1460 c3 -5 8 -10 11 -10 3 0 2 5 -1 10 -3 6 -8 10 -11 10 -3
0 -2 -4 1 -10z" />
    <path d="M10045 1440 c3 -5 8 -10 11 -10 3 0 2 5 -1 10 -3 6 -8 10 -11 10 -3
0 -2 -4 1 -10z" />
    <path d="M10170 1400 c0 -7 3 -10 7 -7 3 4 3 10 0 14 -4 3 -7 0 -7 -7z" />
  </g>
  <g transform="translate(0.000000,1341.000000) scale(0.100000,-0.100000)" fill="#dc8b00" stroke="none">
    <path d="M6694 11928 l-7 -11 11 7 c7 4 12 9 12 12 0 8 -9 4 -16 -8z" />
    <path d="M6474 11438 l-7 -11 11 7 c12 7 16 16 8 16 -3 0 -8 -5 -12 -12z" />
    <path d="M4893 8323 c4 -3 10 -3 14 0 3 4 0 7 -7 7 -7 0 -10 -3 -7 -7z" />
    <path d="M8833 8293 c4 -3 10 -3 14 0 3 4 0 7 -7 7 -7 0 -10 -3 -7 -7z" />
    <path d="M8893 8283 c4 -3 10 -3 14 0 3 4 0 7 -7 7 -7 0 -10 -3 -7 -7z" />
    <path d="M3943 8223 c4 -3 10 -3 14 0 3 4 0 7 -7 7 -7 0 -10 -3 -7 -7z" />
    <path d="M9543 8213 c4 -3 10 -3 14 0 3 4 0 7 -7 7 -7 0 -10 -3 -7 -7z" />
    <path d="M3233 8143 c4 -3 10 -3 14 0 3 4 0 7 -7 7 -7 0 -10 -3 -7 -7z" />
    <path d="M10493 8113 c4 -3 10 -3 14 0 3 4 0 7 -7 7 -7 0 -10 -3 -7 -7z" />
    <path d="M2583 8073 c4 -3 10 -3 14 0 3 4 0 7 -7 7 -7 0 -10 -3 -7 -7z" />
    <path d="M2523 8063 c4 -3 10 -3 14 0 3 4 0 7 -7 7 -7 0 -10 -3 -7 -7z" />
    <path d="M11203 8033 c4 -3 10 -3 14 0 3 4 0 7 -7 7 -7 0 -10 -3 -7 -7z" />
    <path d="M1873 7993 c4 -3 10 -3 14 0 3 4 0 7 -7 7 -7 0 -10 -3 -7 -7z" />
    <path d="M11853 7963 c4 -3 10 -3 14 0 3 4 0 7 -7 7 -7 0 -10 -3 -7 -7z" />
    <path d="M4000 4800 c0 -7 3 -10 7 -7 3 4 3 10 0 14 -4 3 -7 0 -7 -7z" />
    <path d="M9430 4800 c0 -7 3 -10 7 -7 3 4 3 10 0 14 -4 3 -7 0 -7 -7z" />
    <path d="M3980 4710 c0 -7 3 -10 7 -7 3 4 3 10 0 14 -4 3 -7 0 -7 -7z" />
    <path d="M9450 4710 c0 -7 3 -10 7 -7 3 4 3 10 0 14 -4 3 -7 0 -7 -7z" />
    <path d="M3960 4620 c0 -7 3 -10 7 -7 3 4 3 10 0 14 -4 3 -7 0 -7 -7z" />
    <path d="M9470 4620 c0 -7 3 -10 7 -7 3 4 3 10 0 14 -4 3 -7 0 -7 -7z" />
    <path d="M3860 4150 c0 -7 3 -10 7 -7 3 4 3 10 0 14 -4 3 -7 0 -7 -7z" />
    <path d="M3840 4060 c0 -7 3 -10 7 -7 3 4 3 10 0 14 -4 3 -7 0 -7 -7z" />
    <path d="M3790 3820 c0 -7 3 -10 7 -7 3 4 3 10 0 14 -4 3 -7 0 -7 -7z" />
    <path d="M3770 3730 c0 -7 3 -10 7 -7 3 4 3 10 0 14 -4 3 -7 0 -7 -7z" />
    <path d="M9720 3490 c0 -7 3 -10 7 -7 3 4 3 10 0 14 -4 3 -7 0 -7 -7z" />
    <path d="M3700 3400 c0 -7 3 -10 7 -7 3 4 3 10 0 14 -4 3 -7 0 -7 -7z" />
    <path d="M6693 3323 c4 -3 10 -3 14 0 3 4 0 7 -7 7 -7 0 -10 -3 -7 -7z" />
    <path d="M6733 3323 c4 -3 10 -3 14 0 3 4 0 7 -7 7 -7 0 -10 -3 -7 -7z" />
    <path d="M9770 3250 c0 -7 3 -10 7 -7 3 4 3 10 0 14 -4 3 -7 0 -7 -7z" />
    <path d="M6514 3228 l-7 -11 11 7 c12 7 16 16 8 16 -3 0 -8 -5 -12 -12z" />
    <path d="M9790 3160 c0 -7 3 -10 7 -7 3 4 3 10 0 14 -4 3 -7 0 -7 -7z" />
    <path d="M9810 3070 c0 -7 3 -10 7 -7 3 4 3 10 0 14 -4 3 -7 0 -7 -7z" />
    <path d="M7265 3030 c3 -5 8 -10 11 -10 3 0 2 5 -1 10 -3 6 -8 10 -11 10 -3 0
-2 -4 1 -10z" />
    <path d="M3610 2980 c0 -7 3 -10 7 -7 3 4 3 10 0 14 -4 3 -7 0 -7 -7z" />
    <path d="M7355 2980 c3 -5 8 -10 11 -10 3 0 2 5 -1 10 -3 6 -8 10 -11 10 -3 0
-2 -4 1 -10z" />
    <path d="M9840 2920 c0 -7 3 -10 7 -7 3 4 3 10 0 14 -4 3 -7 0 -7 -7z" />
    <path d="M9860 2830 c0 -7 3 -10 7 -7 3 4 3 10 0 14 -4 3 -7 0 -7 -7z" />
    <path d="M7705 2780 c3 -5 8 -10 11 -10 3 0 2 5 -1 10 -3 6 -8 10 -11 10 -3 0
-2 -4 1 -10z" />
    <path d="M5694 2758 l-7 -11 11 7 c12 7 16 16 8 16 -3 0 -8 -5 -12 -12z" />
    <path d="M9880 2740 c0 -7 3 -10 7 -7 3 4 3 10 0 14 -4 3 -7 0 -7 -7z" />
    <path d="M9900 2650 c0 -7 3 -10 7 -7 3 4 3 10 0 14 -4 3 -7 0 -7 -7z" />
    <path d="M8125 2540 c3 -5 8 -10 11 -10 3 0 2 5 -1 10 -3 6 -8 10 -11 10 -3 0
-2 -4 1 -10z" />
    <path d="M5254 2508 l-7 -11 11 7 c12 7 16 16 8 16 -3 0 -8 -5 -12 -12z" />
    <path d="M9930 2510 c0 -7 3 -10 7 -7 3 4 3 10 0 14 -4 3 -7 0 -7 -7z" />
    <path d="M9950 2420 c0 -7 3 -10 7 -7 3 4 3 10 0 14 -4 3 -7 0 -7 -7z" />
    <path d="M3430 2180 c0 -7 3 -10 7 -7 3 4 3 10 0 14 -4 3 -7 0 -7 -7z" />
    <path d="M10000 2180 c0 -7 3 -10 7 -7 3 4 3 10 0 14 -4 3 -7 0 -7 -7z" />
    <path d="M10020 2090 c0 -7 3 -10 7 -7 3 4 3 10 0 14 -4 3 -7 0 -7 -7z" />
    <path d="M9065 2000 c3 -5 8 -10 11 -10 3 0 2 5 -1 10 -3 6 -8 10 -11 10 -3 0
-2 -4 1 -10z" />
    <path d="M3360 1850 c0 -7 3 -10 7 -7 3 4 3 10 0 14 -4 3 -7 0 -7 -7z" />
    <path d="M10070 1850 c0 -7 3 -10 7 -7 3 4 3 10 0 14 -4 3 -7 0 -7 -7z" />
    <path d="M4084 1838 l-7 -11 11 7 c7 4 12 9 12 12 0 8 -9 4 -16 -8z" />
    <path d="M3340 1760 c0 -7 3 -10 7 -7 3 4 3 10 0 14 -4 3 -7 0 -7 -7z" />
    <path d="M10090 1760 c0 -7 3 -10 7 -7 3 4 3 10 0 14 -4 3 -7 0 -7 -7z" />
    <path d="M9505 1750 c3 -5 8 -10 11 -10 3 0 2 5 -1 10 -3 6 -8 10 -11 10 -3 0
-2 -4 1 -10z" />
    <path d="M3894 1728 l-7 -11 11 7 c12 7 16 16 8 16 -3 0 -8 -5 -12 -12z" />
    <path d="M3320 1670 c0 -7 3 -10 7 -7 3 4 3 10 0 14 -4 3 -7 0 -7 -7z" />
    <path d="M3544 1528 l-7 -11 11 7 c7 4 12 9 12 12 0 8 -9 4 -16 -8z" />
    <path d="M3290 1520 c0 -7 3 -10 7 -7 3 4 3 10 0 14 -4 3 -7 0 -7 -7z" />
    <path d="M10140 1520 c0 -7 3 -10 7 -7 3 4 3 10 0 14 -4 3 -7 0 -7 -7z" />
    <path d="M3454 1478 l-7 -11 11 7 c12 7 16 16 8 16 -3 0 -8 -5 -12 -12z" />
    <path d="M3270 1430 c0 -7 3 -10 7 -7 3 4 3 10 0 14 -4 3 -7 0 -7 -7z" />
    <path d="M10160 1430 c0 -7 3 -10 7 -7 3 4 3 10 0 14 -4 3 -7 0 -7 -7z" />
  </g>
  <g transform="translate(0.000000,1341.000000) scale(0.100000,-0.100000)" fill="#e39100" stroke="none">
    <path d="M6280 11000 c0 -7 3 -10 7 -7 3 4 3 10 0 14 -4 3 -7 0 -7 -7z" />
    <path d="M6060 10510 c0 -7 3 -10 7 -7 3 4 3 10 0 14 -4 3 -7 0 -7 -7z" />
    <path d="M7570 10080 c0 -7 3 -10 7 -7 3 4 3 10 0 14 -4 3 -7 0 -7 -7z" />
    <path d="M7790 9590 c0 -7 3 -10 7 -7 3 4 3 10 0 14 -4 3 -7 0 -7 -7z" />
    <path d="M5450 9160 c0 -7 3 -10 7 -7 3 4 3 10 0 14 -4 3 -7 0 -7 -7z" />
    <path d="M7980 9160 c0 -7 3 -10 7 -7 3 4 3 10 0 14 -4 3 -7 0 -7 -7z" />
    <path d="M5230 8670 c0 -7 3 -10 7 -7 3 4 3 10 0 14 -4 3 -7 0 -7 -7z" />
    <path d="M8200 8670 c0 -7 3 -10 7 -7 3 4 3 10 0 14 -4 3 -7 0 -7 -7z" />
    <path d="M8653 8313 c4 -3 10 -3 14 0 3 4 0 7 -7 7 -7 0 -10 -3 -7 -7z" />
    <path d="M8713 8303 c4 -3 10 -3 14 0 3 4 0 7 -7 7 -7 0 -10 -3 -7 -7z" />
    <path d="M4363 8263 c4 -3 10 -3 14 0 3 4 0 7 -7 7 -7 0 -10 -3 -7 -7z" />
    <path d="M4123 8243 c4 -3 10 -3 14 0 3 4 0 7 -7 7 -7 0 -10 -3 -7 -7z" />
    <path d="M9363 8233 c4 -3 10 -3 14 0 3 4 0 7 -7 7 -7 0 -10 -3 -7 -7z" />
    <path d="M10073 8153 c4 -3 10 -3 14 0 3 4 0 7 -7 7 -7 0 -10 -3 -7 -7z" />
    <path d="M10313 8133 c4 -3 10 -3 14 0 3 4 0 7 -7 7 -7 0 -10 -3 -7 -7z" />
    <path d="M2763 8093 c4 -3 10 -3 14 0 3 4 0 7 -7 7 -7 0 -10 -3 -7 -7z" />
    <path d="M11023 8053 c4 -3 10 -3 14 0 3 4 0 7 -7 7 -7 0 -10 -3 -7 -7z" />
    <path d="M2053 8013 c4 -3 10 -3 14 0 3 4 0 7 -7 7 -7 0 -10 -3 -7 -7z" />
    <path d="M11673 7983 c4 -3 10 -3 14 0 3 4 0 7 -7 7 -7 0 -10 -3 -7 -7z" />
    <path d="M3940 4530 c0 -7 3 -10 7 -7 3 4 3 10 0 14 -4 3 -7 0 -7 -7z" />
    <path d="M9490 4530 c0 -7 3 -10 7 -7 3 4 3 10 0 14 -4 3 -7 0 -7 -7z" />
    <path d="M3590 2890 c0 -7 3 -10 7 -7 3 4 3 10 0 14 -4 3 -7 0 -7 -7z" />
    <path d="M9920 2560 c0 -7 3 -10 7 -7 3 4 3 10 0 14 -4 3 -7 0 -7 -7z" />
  </g>
  <g transform="translate(0.000000,1341.000000) scale(0.100000,-0.100000)" fill="#ce8400" stroke="none">
    <path d="M3930 4480 c0 -7 3 -10 7 -7 3 4 3 10 0 14 -4 3 -7 0 -7 -7z" />
    <path d="M3910 4390 c0 -7 3 -10 7 -7 3 4 3 10 0 14 -4 3 -7 0 -7 -7z" />
    <path d="M6708 3323 c6 -2 18 -2 25 0 6 3 1 5 -13 5 -14 0 -19 -2 -12 -5z" />
  </g>
  <g transform="translate(0.000000,1341.000000) scale(0.100000,-0.100000)" fill="#e18f00" stroke="none">
    <path d="M9351 5204 l1 -19 5 13 c3 7 2 16 -1 19 -3 4 -6 -2 -5 -13z" />
  </g>
  <g transform="translate(0.000000,1341.000000) scale(0.100000,-0.100000)" fill="#000000" stroke="none" />
  <g transform="translate(0.000000,1341.000000) scale(0.100000,-0.100000)" fill="#000000" stroke="none" />
  <g transform="translate(0.000000,1341.000000) scale(0.100000,-0.100000)" fill="#000000" stroke="none" />
  <g transform="translate(0.000000,1341.000000) scale(0.100000,-0.100000)" fill="#000000" stroke="none" />
  <g transform="translate(0.000000,1341.000000) scale(0.100000,-0.100000)" fill="#000000" stroke="none" />
  <g transform="translate(0.000000,1341.000000) scale(0.100000,-0.100000)" fill="#0000ff" stroke="none" />
  <g transform="translate(0.000000,1341.000000) scale(0.100000,-0.100000)" fill="#000000" stroke="none" />
  <g transform="translate(0.000000,1341.000000) scale(0.100000,-0.100000)" fill="#ffffff" stroke="none" />
  <g transform="translate(0.000000,1341.000000) scale(0.100000,-0.100000)" fill="#00ffff" stroke="none" />
  <g transform="translate(0.000000,1341.000000) scale(0.100000,-0.100000)" fill="#ff00ff" stroke="none" />
  <g transform="translate(0.000000,1341.000000) scale(0.100000,-0.100000)" fill="#000000" stroke="none" />
  <g transform="translate(0.000000,1341.000000) scale(0.100000,-0.100000)" fill="#000000" stroke="none" />
  <g transform="translate(0.000000,1341.000000) scale(0.100000,-0.100000)" fill="#000000" stroke="none" />
</svg>